<?xml version="1.0" standalone="no"?>
<!DOCTYPE svg PUBLIC "-//W3C//DTD SVG 1.1//EN" "http://www.w3.org/Graphics/SVG/1.1/DTD/svg11.dtd" >
<svg xmlns="http://www.w3.org/2000/svg" xmlns:xlink="http://www.w3.org/1999/xlink" version="1.1">
<metadata></metadata>
<defs>
<font id="minuitdisplay" horiz-adv-x="1024" >
<font-face units-per-em="2048" ascent="1638" descent="-410" />
<missing-glyph horiz-adv-x="512" />
<glyph horiz-adv-x="0" />
<glyph horiz-adv-x="682" />
<glyph unicode=" "  horiz-adv-x="512" />
<glyph unicode="&#x09;" horiz-adv-x="512" />
<glyph unicode="&#xa0;" horiz-adv-x="512" />
<glyph unicode="!" horiz-adv-x="671" d="M158 1319q54 33 104 49v14l10 334l15 234l6 135q0 44 -6 59q-9 15 -29 15q-21 0 -82 -25l-18 33q141 84 311 84l31 -2l6 -68q0 -92 -19 -222t-38 -210l-48 -193q-19 -76 -36 -161q44 8 104 8l31 -2l6 -68q0 -92 -19 -222t-38 -210l-48 -192q-69 -279 -69 -414v-39l-37 -6 q-33 115 -33 285l8 290q-31 9 -51 36.5t-20 62.5q0 38 23.5 65t60.5 33l4 80l2 22q-22 87 -25 187h-6q-21 0 -82 -25zM199 76q0 43 29 71.5t73 28.5q43 0 71.5 -28.5t28.5 -71.5t-29.5 -73t-70.5 -30q-43 0 -72.5 30t-29.5 73z" />
<glyph unicode="&#x22;" horiz-adv-x="751" d="M100 1366l56 -549h90l55 549h-201zM100 2216l56 -549h90l55 549h-201zM451 1366l57 -549h88l57 549h-202zM451 2216l57 -549h88l57 549h-202z" />
<glyph unicode="#" horiz-adv-x="1202" d="M86 467l14 88h246l53 283h-235l14 88h62l84 391h-238l14 88h246l53 283h-235l14 88h244l94 440h94l-94 -440h289l94 440h96l-96 -440h223l-14 -88h-229l-56 -283h224l-17 -88h-45l-86 -391h223l-14 -88h-229l-56 -283h224l-17 -88h-229l-101 -467h-96l101 467h-287 l-101 -467h-94l101 467h-238zM334 926h88l84 391h-88zM440 555h289l53 283h-286zM440 1405h289l53 283h-286zM516 926h105l84 391h-105zM717 926h88l84 391h-88z" />
<glyph unicode="$" horiz-adv-x="1200" d="M18 39l152 442l37 -14v-82q0 -147 48 -214t183 -110l125 555q-22 12 -88 56h-88l12 61q-64 64 -90 129l-76 27q-49 19 -75 26q-25 7 -29 7q-16 0 -25 -9q-14 -14 -32 -49l-54 19l152 442l37 -14v-82q0 -91 16.5 -147.5t55.5 -94.5v17q0 126 73.5 227t190.5 141l20 88 q-284 155 -284 387q0 161 116.5 276t280.5 115l61 -4l35 162h90l-43 -178q59 -20 96 -20q44 0 70 36h45l29 -446h-45q-44 171 -86 242.5t-123 115.5l-100 -446l202 -119q80 -50 127 -135.5t47 -183.5q0 -82 -32 -160l10 -158h-45l-19 68q-94 -123 -268 -168l180 -107 q80 -50 127 -135.5t47 -183.5q0 -191 -149.5 -315t-376.5 -123h-47l-33 -152h-88l35 162q-70 10 -189 55q-60 23 -75 27q-21 6 -29 6q-17 0 -25 -8q-13 -13 -32 -50zM467 1120q0 -33 6 -57l43 192q-49 -55 -49 -135zM467 1964q0 -69 35.5 -118.5t122.5 -100.5l94 422l-29 2 q-97 0 -160 -57.5t-63 -147.5zM522 47h37q127 0 211 73.5t84 184.5q0 82 -49.5 143.5t-165.5 122.5zM539 963q43 -37 86 -62l94 422l-29 2q-36 0 -74 -10zM635 1393q12 2 41 2l-37 20zM721 930q62 34 97.5 91.5t35.5 127.5q0 82 -51 145z" />
<glyph unicode="%" horiz-adv-x="1632" d="M59 963q0 117 98 196.5t244 79.5q124 0 211 -68l420 1045h119l-461 -1141q25 -52 25 -106q0 -113 -94.5 -191t-233.5 -78q-150 0 -239 71t-89 192zM59 1812q0 117 98 197t244 80q134 0 224 -77.5t90 -192.5q0 -113 -94.5 -191t-233.5 -78q-150 0 -239 70.5t-89 191.5z M236 975q0 -105 44.5 -170.5t116.5 -65.5q97 0 133 111h-49l60 145q-9 95 -51 149t-107 54q-69 0 -108 -59t-39 -164zM236 1825q0 -105 44.5 -170.5t116.5 -65.5q67 0 106.5 55.5t39.5 149.5q0 117 -43 185.5t-117 68.5q-69 0 -108 -59t-39 -164zM481 0l457 1133 q-20 52 -20 104q0 117 98 196.5t244 79.5q134 0 223.5 -77.5t89.5 -192.5q0 -113 -94.5 -190.5t-233.5 -77.5q-138 0 -227 61l-418 -1036h-119zM918 387q0 117 98 197t244 80q133 0 223 -77.5t90 -193.5q0 -113 -94.5 -190.5t-233.5 -77.5q-150 0 -238.5 70.5t-88.5 191.5z M1094 399q0 -104 44.5 -169.5t116.5 -65.5q68 0 107 54t39 151q0 117 -43 185.5t-117 68.5q-69 0 -108 -59t-39 -165zM1094 1225q6 -94 50 -152.5t111 -58.5q68 0 107 54t39 151q0 117 -43 185.5t-117 68.5q-96 0 -131 -107h41z" />
<glyph unicode="&#x26;" horiz-adv-x="1605" d="M72 365q0 87 26 157.5t75.5 119t79.5 70.5t77 49q8 5 12 7q23 12 111 55q-170 31 -275.5 138.5t-105.5 252.5q0 87 25.5 157.5t77 120.5t78 69.5t78.5 49.5q2 2 3.5 3t3.5 2l4 2q76 41 174 84q-103 92 -136.5 142t-33.5 110q0 121 102 209t242 88q129 0 210 -61.5 t81 -159.5q0 -157 -213 -293q97 -93 192.5 -217.5t169.5 -255.5q132 212 132 364q0 46 -23 62q-21 12 -129 12v37h453v-37q-101 0 -152 -10q-33 -6 -51 -82q-21 -86 -73 -207.5t-113 -210.5l126 -274l287 -31v-37h-114q-39 -3 -62 -8q-33 -6 -51 -82q-21 -86 -73 -207.5 t-113 -210.5l126 -274l287 -31v-37h-547l-47 133q-200 -170 -424 -170q-213 0 -355 115.5t-142 286.5zM326 483q0 -173 109.5 -289t273.5 -116q67 0 123.5 27.5t134.5 99.5q-63 169 -150 298t-244 288q-129 -50 -188 -123t-59 -185zM326 1333q0 -86 28 -162q28 98 122.5 164 t213.5 66q54 0 101 -12q-65 95 -218 251q-129 -50 -188 -122.5t-59 -184.5zM496 1223q0 -57 30 -97q22 -36 138 -137l16 -16l18 -17l17 -14q100 63 100 209q0 91 -43.5 144t-118.5 53q-68 0 -112.5 -35t-44.5 -90zM496 2073q0 -57 30 -97q22 -36 138 -137l16 -16l18 -17 l17 -14q100 63 100 209q0 91 -43.5 144t-118.5 53q-68 0 -112.5 -35t-44.5 -90zM797 860q184 -187 333 -446q132 211 132 364q0 46 -23 62q-14 7 -55 10h-144l-47 133q-102 -86 -196 -123zM911 1006q5 4 16 14t21 18.5t19 16.5l-9 24q-11 -23 -47 -73z" />
<glyph unicode="'" horiz-adv-x="425" d="M111 1366l57 -549h94l55 549h-206zM111 2216l57 -549h94l55 549h-206z" />
<glyph unicode="(" horiz-adv-x="718" d="M180 483q0 244 74 439q-74 189 -74 411q0 649 514 920l25 -27q-138 -114 -197.5 -206.5t-95.5 -256.5q-37 -167 -37 -370q0 -114 12 -222q123 145 293 232l25 -27q-130 -106 -189 -193t-94 -227q41 -171 92 -262q57 -111 166 -235l-26 -27q-164 124 -275 256 q-4 -94 -4 -145q0 -205 38.5 -396.5t100.5 -302.5q57 -111 166 -235l-26 -27q-270 204 -381 418q-107 213 -107 483z" />
<glyph unicode=")" horiz-adv-x="718" d="M0 -393q95 78 148 139.5t87.5 137t59.5 188.5q37 164 37 368q0 102 -13 219q-114 -132 -294 -227l-25 25q131 107 191 194t94 228q-36 159 -80 243q-49 90 -81.5 135t-98.5 117l28 29q174 -132 275 -258q4 94 4 145q0 201 -37.5 392t-89.5 290q-49 90 -81.5 135 t-98.5 117l28 29q257 -192 372.5 -406t115.5 -497q0 -248 -74 -443q74 -178 74 -407q0 -292 -99 -500q-122 -263 -417 -418z" />
<glyph unicode="*" horiz-adv-x="1064" d="M176 1047l313 -41l-231 -218l139 -100l135 285l136 -287l137 100l-230 218l314 40l-51 162l-279 -149l59 309h-169l57 -309l-277 151zM176 1896l313 -41l-231 -217l139 -100l135 285l136 -287l137 100l-230 217l314 41l-51 162l-279 -149l59 309h-169l57 -309l-277 151z " />
<glyph unicode="+" d="M37 655v111h418v739h-418v111h418v401h114v-401h418v-111h-418v-739h418v-111h-418v-399h-114v399h-418z" />
<glyph unicode="," horiz-adv-x="671" d="M160 90l26 -24q8 4 17 9t14 7.5t8 3.5q6 2 17 2q25 0 41 -29.5t16 -72.5q0 -116 -139 -219l26 -29q137 68 220 154.5t83 164.5q0 49 -34.5 84t-79.5 35q-82 0 -215 -86zM160 604l26 -29q137 68 220 155t83 165q0 49 -34.5 84t-79.5 35q-82 0 -215 -86l26 -25q8 4 17 9 t14 8t8 4q6 2 17 2q24 0 40.5 -30t16.5 -73q0 -116 -139 -219z" />
<glyph unicode="-" horiz-adv-x="518" d="M0 217l41 -27l45 70h346l86 172l-33 27l-53 -68h-346zM39 1067l41 -27l45 70h346l86 172l-33 27l-53 -68h-346z" />
<glyph unicode="." horiz-adv-x="669" d="M233 76q0 -43 30 -73t73 -30q41 0 70.5 30t29.5 73t-28.5 71.5t-71.5 28.5q-44 0 -73.5 -28.5t-29.5 -71.5zM233 928q0 -43 30 -73t73 -30q41 0 70.5 30t29.5 73t-28.5 71.5t-71.5 28.5q-44 0 -73.5 -28.5t-29.5 -71.5z" />
<glyph unicode="/" horiz-adv-x="884" d="M-39 -383h180l707 1749h-180l-547 -1366zM-39 467h180l707 1749h-180l-547 -1366z" />
<glyph unicode="0" horiz-adv-x="899" d="M63 295q0 -140 104.5 -223.5t281.5 -83.5q164 0 274.5 90t110.5 225q0 137 -105.5 228.5t-263.5 91.5q-172 0 -287 -94t-115 -234zM63 1145q0 -140 104.5 -223.5t281.5 -83.5q164 0 274.5 90t110.5 225q0 137 -105.5 228.5t-263.5 91.5q-172 0 -287 -94t-115 -234z M270 313q0 128 44.5 195t129.5 67t136 -82t51 -217q0 -112 -46 -176.5t-124 -64.5q-85 0 -138 77.5t-53 200.5zM270 1163q0 128 44.5 195t129.5 67t136 -82t51 -217q0 -112 -46 -176.5t-124 -64.5q-85 0 -138 77.5t-53 200.5z" />
<glyph unicode="1" horiz-adv-x="905" d="M193 492l12 -31q58 14 145 45l29 10q14 0 20 -35q5 -52 2 -149v-103l-6 -163q-3 -13 -4 -13q-3 -3 -37 -6l-149 -10v-37h522v37h-80q-29 0 -37 8t-10 39l-6 98q-6 94 -6 144q0 86 14 272l-27 37l-116 -10q-100 -58 -135.5 -75.5t-130.5 -57.5zM193 1341l12 -30 q58 14 145 45l29 10q14 0 20 -35q5 -52 2 -149v-103l-6 -164q-3 -12 -4 -12q-3 -3 -37 -6l-149 -10v-37h522v37h-80q-29 0 -37 8t-10 39l-6 98q-6 94 -6 144q0 86 14 272l-27 37l-116 -10q-104 -60 -138.5 -77.5t-127.5 -56.5z" />
<glyph unicode="2" horiz-adv-x="894" d="M96 57l19 -57h415q29 0 29 -18l-2 -13h45q14 28 62 101.5t94 136.5l-15 12q-44 -28 -120 -88h-261q201 115 269 180q67 64 67 144q0 78 -73 127t-189 49q-130 0 -210.5 -53.5t-80.5 -139.5q0 -61 70 -61q84 0 84 49l-4 29l-2 34q0 91 94 91q111 0 111 -107 q0 -112 -76 -194q-73 -81 -126 -116.5t-200 -105.5zM96 907l19 -57h415q29 0 29 -19l-2 -12h45q14 28 62 101.5t94 136.5l-15 12q-44 -28 -120 -88h-261q201 115 269 180q67 64 67 144q0 78 -73 127t-189 49q-130 0 -210.5 -53.5t-80.5 -139.5q0 -61 70 -61q84 0 84 49 l-4 29l-2 34q0 91 94 91q111 0 111 -107q0 -113 -76 -195q-72 -80 -125 -115t-201 -106z" />
<glyph unicode="3" horiz-adv-x="897" d="M53 172q0 32 19.5 56t44.5 24q31 0 53 -16q18 -16 63 -82q41 -64 76.5 -88.5t85.5 -24.5q74 0 123 69.5t49 174.5q0 106 -65.5 178t-163.5 72q-35 0 -63 -8.5t-82 -34.5l-21 26l293 328q-55 -10 -105 -10q-84 0 -167 34q-17 -24 -50 -82l-30 13l37 92q-97 60 -97 127 q0 32 19.5 56t44.5 24q29 0 53 -17q7 -6 37 -43l16 43h340q4 32 4 50q0 106 -65.5 177.5t-163.5 71.5q-35 0 -63 -8.5t-82 -34.5l-21 27l383 428h-219h-43t-31.5 -7t-26 -13t-25 -28.5t-29 -43t-38.5 -66.5l-30 13l110 282h541l-453 -506q83 17 135 17q142 0 236 -80 t94 -203q0 -85 -50 -155.5t-136 -114.5l-279 -311q78 16 135 16q142 0 236 -80t94 -203q0 -135 -121.5 -229t-294.5 -94q-115 0 -211 57.5t-96 126.5zM276 944q50 -55 119 -55q67 0 115 57h-174q-44 0 -60 -2z" />
<glyph unicode="4" horiz-adv-x="899" d="M104 47l482 578v225h-461l-21 47l725 870l70 -63l-627 -717h314v289l166 197v-650l77 95l70 -64l-147 -168v-1087l-166 -91v492h-461zM272 137h314v359z" />
<glyph unicode="5" horiz-adv-x="897" d="M66 152q0 71 57 71q26 0 45 -16q11 -9 57 -72q38 -56 71 -77t81 -21q80 0 129 71.5t49 188.5q0 97 -51 159t-131 62q-55 0 -99 -24.5t-94 -81.5h-39l148 430q-97 14 -160 57.5t-63 99.5q0 72 57 72q26 0 45 -16q11 -9 57 -72q44 -66 82 -84l64 186q85 -25 176 -28 q8 36 8 88q0 97 -51 159t-131 62q-55 0 -99 -24.5t-94 -81.5h-39l230 673q93 -28 200 -28q93 0 191 28l16 -28q-78 -91 -155 -120.5t-242 -29.5l-135 -385q140 90 260 90q111 0 184.5 -72t73.5 -182q0 -63 -29 -129l27 8l16 -28q-80 -92 -155 -121q-123 -98 -267 -98 l-110 -316q140 90 260 90q111 0 184.5 -72t73.5 -182q0 -93 -57.5 -178.5t-152.5 -137.5t-198 -52q-119 0 -204.5 47.5t-85.5 114.5zM373 885h4q45 0 82 24l-78 -2z" />
<glyph unicode="6" horiz-adv-x="905" d="M59 393q0 262 156 516q-74 51 -115 138t-41 196q0 181 72.5 356t243.5 377q176 209 446 209q81 0 127 -14q47 -15 47 -39q0 -18 -14 -33.5t-31 -15.5l-24 6q-92 37 -178 37q-123 0 -230.5 -97t-173 -268t-65.5 -372q109 69 213 69q89 0 163 -33.5t121 -91.5l45 2 q81 0 127 -14q47 -15 47 -39q0 -18 -14 -33.5t-31 -15.5l-24 6q-55 22 -111 31q21 -58 21 -103q0 -133 -112.5 -231t-264.5 -98q-71 0 -133 18q-47 -146 -47 -317q109 69 213 69q146 0 245 -84t99 -207q0 -133 -112.5 -231t-264.5 -98q-183 0 -291.5 110t-108.5 295z M264 362q0 -139 60.5 -234t148.5 -95q72 0 116 68.5t44 181.5q0 127 -50 199.5t-137 72.5q-80 0 -131 -53.5t-51 -139.5zM264 1212q0 -98 33 -182q71 88 78 96q101 119 229 170q-51 109 -158 109q-80 0 -131 -53.5t-51 -139.5zM354 938q55 -55 119 -55q72 0 116 68.5 t44 181.5q0 61 -12 114q-81 -38 -150.5 -118t-116.5 -191z" />
<glyph unicode="7" horiz-adv-x="894" d="M59 313q45 101 91.5 181t173.5 274q146 222 333 479l-188 4h-84q-28 0 -48 -1t-38 -5.5t-29.5 -8t-24 -14.5t-20 -18.5t-19 -26t-18.5 -31.5t-22 -41t-27 -48h-35q37 146 57 211t70 194h56q5 -32 9 -36q6 -5 40 -5h534q-64 -94 -190 -299l-178 -295q-106 -173 -146 -247 h514q-64 -94 -190 -299l-178 -295q-140 -231 -179 -313t-65 -201h-199q45 100 91 179.5t174 274.5q153 232 333 480l-188 4h-84q-65 0 -106 -13q-12 -37 -21 -84h-63q-19 -32 -56 -98h-35l25 98h-70z" />
<glyph unicode="8" horiz-adv-x="901" d="M59 236q0 179 263 315q-191 105 -191 262q0 44 16 94q-88 63 -88 176q0 180 263 316q-191 105 -191 262q0 123 101 212t241 89q122 0 217.5 -74t95.5 -170q0 -78 -47 -129.5t-182 -120.5q140 -68 200 -140.5t60 -174.5q0 -111 -61 -184q30 -47 30 -99q0 -78 -47 -129 t-182 -120q140 -68 200 -140.5t60 -175.5q0 -146 -108 -231.5t-293 -85.5q-166 0 -261.5 66.5t-95.5 181.5zM203 279q0 -105 72 -174.5t182 -69.5q85 0 141.5 57.5t56.5 145.5q0 39 -17 76t-40.5 63.5t-59.5 53t-60.5 40.5t-57.5 31l-41 20q-176 -83 -176 -243zM203 1126 q0 -57 22 -106q104 94 248 94q98 0 182 -49v20q0 39 -17 76t-40.5 63.5t-59 53t-61 41t-57.5 31.5l-41 20q-176 -83 -176 -244zM287 1735q0 -91 110 -176q28 -20 47 -31l31 -19l35 -18q72 43 102.5 90.5t30.5 116.5q0 93 -51.5 156t-128.5 63q-75 0 -125.5 -52t-50.5 -130z M293 848q18 -69 104 -137q28 -20 47 -31l31 -18l35 -19q72 43 102.5 90.5t30.5 116.5l-2 31q-95 -45 -225 -45q-68 0 -123 12zM293 936q69 -53 164 -53q105 0 161 82q-51 104 -155 104q-63 0 -109 -36.5t-61 -96.5z" />
<glyph unicode="9" horiz-adv-x="892" d="M18 301l11 47h61q6 50 34 93t95 104q90 78 223 78q40 0 80 -9q54 109 82 265q-107 -43 -198 -43q-153 0 -236.5 79t-83.5 222q0 79 25 130.5t108 125.5q89 77 223 77q174 0 279.5 -128t105.5 -341q0 -249 -168 -448q80 -59 124 -161.5t44 -237.5q0 -191 -98 -353 t-267.5 -257t-369.5 -95l-74 4l11 47h67q413 0 508 531q-107 -43 -198 -43q-153 0 -236.5 79t-83.5 222v8zM274 379q133 50 215 178q-27 12 -63 12q-67 0 -108 -51t-44 -139zM274 1214q0 -148 53.5 -234.5t145.5 -86.5q43 0 92 18l27 15l18 10q11 72 11 115q0 366 -195 366 q-69 0 -110.5 -55t-41.5 -148zM276 319q8 -128 60 -201t137 -73q43 0 92 18l27 15l18 10q11 72 11 115q0 177 -46 268q-135 -113 -299 -152z" />
<glyph unicode=":" horiz-adv-x="671" d="M233 76q0 -43 30 -73t73 -30q41 0 70.5 30t29.5 73t-28.5 71.5t-71.5 28.5q-44 0 -73.5 -28.5t-29.5 -71.5zM233 526q0 -43 30 -72.5t73 -29.5q41 0 70.5 29.5t29.5 72.5t-28.5 72t-71.5 29q-44 0 -73.5 -29t-29.5 -72zM233 928q0 -43 30 -73t73 -30q41 0 70.5 30 t29.5 73t-28.5 71.5t-71.5 28.5q-44 0 -73.5 -28.5t-29.5 -71.5zM233 1378q0 -43 30 -72.5t73 -29.5q41 0 70.5 29.5t29.5 72.5t-28.5 72t-71.5 29q-44 0 -73.5 -29t-29.5 -72z" />
<glyph unicode=";" horiz-adv-x="671" d="M160 90l26 -24q8 4 17 9t14 7.5t8 3.5q6 2 17 2q25 0 41 -29.5t16 -72.5q0 -116 -139 -219l26 -29q137 68 220 154.5t83 164.5q0 49 -34.5 84t-79.5 35q-82 0 -215 -86zM160 612l26 -28q137 68 220 154.5t83 164.5q0 49 -34.5 84t-79.5 35q-82 0 -215 -86l26 -25 q8 4 17 9t14 8t8 4q6 2 17 2q24 0 40.5 -30t16.5 -73q0 -116 -139 -219zM233 526q0 -43 30 -72.5t73 -29.5q41 0 70.5 29.5t29.5 72.5t-28.5 72t-71.5 29q-44 0 -73.5 -29t-29.5 -72zM233 1372q0 -43 30 -72.5t73 -29.5q41 0 70.5 29.5t29.5 72.5t-28.5 72t-71.5 29 q-44 0 -73.5 -29t-29.5 -72z" />
<glyph unicode="&#x3c;" d="M86 711v14l637 408l-637 428v14l852 545v-95l-600 -387l573 -385l27 17v-283l-143 96l-457 -295l600 -403v-248z" />
<glyph unicode="=" d="M37 512h950v106h-950v-106zM37 807h950v106h-950v-106zM37 1362h950v106h-950v-106zM37 1657h950v106h-950v-106z" />
<glyph unicode="&#x3e;" d="M86 137v94l600 387l-575 386l-25 -17v283l143 -96l457 294l-600 402v250l852 -576v-14l-637 -406l637 -430v-14z" />
<glyph unicode="?" horiz-adv-x="825" d="M119 1124q0 77 38 140.5t103 99.5q17 97 158 332q82 137 110 207q27 65 27 131q0 78 -40 126t-107 48q-62 0 -97 -27t-35 -74q0 -23 17 -69q16 -43 16 -64q0 -25 -45 -47t-100 -22q-45 0 -45 73q0 119 84 199t211 80q154 0 252 -80t98 -205q0 -47 -11.5 -89.5t-34 -80 t-35 -54.5t-36.5 -46q-29 -41 -129 -158q-80 -98 -110 -141h6q154 0 252 -80t98 -205q0 -47 -11.5 -89.5t-34 -80t-35 -54.5t-36.5 -46q-29 -41 -129 -158q-105 -126 -143 -190q-43 -67 -43 -121q0 -27 2 -37l12 -70l-33 -20q-35 74 -47 117.5t-12 91.5q0 61 38.5 150 t125.5 231q82 137 110 207q27 65 27 131q0 78 -40 126t-107 48q-25 0 -35 -2q-41 -68 -41 -119q0 -27 2 -37l12 -70l-33 -20l-4 10q-5 -25 -49 -45t-96 -20q-45 0 -45 73zM221 76q0 43 29.5 71.5t73.5 28.5q43 0 71.5 -28.5t28.5 -71.5t-29.5 -73t-70.5 -30q-43 0 -73 30 t-30 73zM221 930q0 43 29.5 71.5t73.5 28.5q43 0 71.5 -28.5t28.5 -71.5t-29.5 -73t-70.5 -30q-43 0 -73 30t-30 73z" />
<glyph unicode="@" horiz-adv-x="1591" d="M109 651q0 238 139 432q-139 182 -139 418q0 153 60 291.5t162.5 238t245.5 158t302 58.5q265 0 434.5 -152.5t169.5 -390.5q0 -131 -48 -251.5t-128 -201.5q84 -73 130 -175t46 -222q0 -146 -59 -278t-157 -211.5t-206 -79.5q-63 0 -101 48.5t-38 129.5 q-120 -184 -271 -184q-87 0 -141.5 71.5t-54.5 186.5q0 165 94 323q-131 46 -236 148q-51 -91 -81.5 -193.5t-30.5 -185.5q0 -153 80 -287.5t214.5 -214.5t288.5 -80q176 0 328 100l133 101l70 -19q-46 -42 -66.5 -60t-52.5 -44t-66 -49q-58 -41 -162 -73t-198 -32 q-181 0 -333 90.5t-240 247t-88 342.5zM201 1479q0 -178 104 -326q72 78 164 131q-14 43 -14 102q0 129 57.5 255t151 205t190.5 79q114 0 184 -108l17 81q49 0 121 13l-127 -490l-11 -41q117 -23 213 -88q67 70 110.5 176t43.5 226q0 208 -147.5 344.5t-374.5 136.5 q-146 0 -274.5 -54.5t-213.5 -148.5q-82 -93 -138 -236t-56 -257zM362 1083q99 -105 236 -153q122 145 256 145q114 0 184 -108l17 82q55 0 121 12l-5 -19l74 56l70 -19q-121 -109 -172 -145l-94 -363q-23 -94 -23 -125q0 -90 70 -90q44 0 97 37.5t100.5 100t79.5 156.5 t32 194q0 106 -42 197.5t-118 156.5q-85 -63 -184 -63q-63 0 -101 48.5t-38 129.5q-120 -185 -271 -185q-92 0 -151 84q-58 -40 -105 -90q-15 -18 -33 -39zM575 492q0 -68 29 -108t80 -40q74 0 149.5 95.5t106.5 228.5l10 41l45 143l2 10q-115 -41 -227 -41q-56 0 -100 8 q-95 -182 -95 -337zM575 1339q144 58 304 58h20q28 64 41 121l10 41l45 143l4 18q0 66 -30.5 105t-81.5 39q-116 0 -209 -170q-103 -183 -103 -353v-2zM590 1262q25 -68 94 -68q89 0 176 131q-147 -6 -270 -63zM713 901q50 -4 71 -4q102 0 205 39q-12 37 -38.5 57.5 t-63.5 20.5q-95 0 -174 -113zM1026 1296q0 -90 70 -90q41 0 94 35q-74 47 -164 68v-13z" />
<glyph unicode="A" horiz-adv-x="1556" d="M12 0v47q59 0 95 2t69 11t51 21t36.5 37.5t31 54.5t29.5 79l202 598h-514v47q59 0 95 2t69 11t51 21t36.5 37.5t31 54.5t29.5 79l327 964l-47 140l80 39q43 -19 66 -19q14 0 34 4q23 6 66 23l37 14l399 -1190q36 -100 66 -123q31 -28 59 -34q22 -7 135 -23v-47h-469 l209 -623q36 -100 66 -123q31 -28 59 -34q22 -7 135 -23v-47h-755v47l69 4q85 0 119 17q31 16 31 61l-6 37l-103 311l-201 4l-204 -4l-88 -272q-21 -59 -21 -99q0 -32 23 -45t86 -14h94v-47h-578zM387 956q0 -32 23 -44.5t86 -12.5h47l108 318l-39 112l-116 -2l-88 -272 q-21 -59 -21 -99zM524 563l174 -4l172 4l-174 522zM524 1413l174 -4l172 4l-174 522z" />
<glyph unicode="B" horiz-adv-x="1517" d="M18 0v47l269 12q29 0 39 25t12 70q2 23 2 145v551h-322v47l269 12q29 0 39 25t12 70q2 18 2 114q0 110 -10 152q-9 37 -43 37l-262 12v47h315v598q0 114 -10 156q-9 37 -43 37l-262 12v47h626l183 -4q165 0 240.5 -23t150.5 -96q73 -76 73 -205q0 -92 -56 -146t-200 -104 q201 -47 296.5 -145.5t95.5 -259.5q0 -92 -42.5 -172t-119.5 -133q-49 -77 -230 -140q201 -47 296.5 -145.5t95.5 -259.5q0 -106 -55.5 -194.5t-153.5 -137.5q-96 -51 -326 -51h-881zM627 297q0 -90 20 -223l109 -6q138 0 214 46t117 130q37 75 37 159q0 83 -40 163t-97 116 q-56 35 -118 47t-173 12h-69v-444zM627 817h55q118 0 188 33h-243v-33zM627 1104q3 -61 20 -180l109 -6q147 0 233 57q8 27 8 63q0 111 -92 184.5t-233 73.5h-29q-13 -128 -16 -192zM627 1366h24l183 -4q108 0 171 -8t111 -31q-13 66 -49 123.5t-80 85.5q-56 35 -118 47 t-173 12h-69v-225zM627 1667h55q152 0 233.5 57.5t81.5 163.5q0 111 -92 184.5t-233 73.5h-29q-16 -154 -16 -229v-250z" />
<glyph unicode="C" horiz-adv-x="1466" d="M96 682q0 241 127 416q-127 181 -127 430q0 210 97 373.5t273.5 254.5t403.5 91q94 0 177 -17q75 -15 94 -18l28 -4q41 0 58 39l51 6q52 -214 84 -459h-47q-55 115 -96 180.5t-92.5 113.5t-111.5 65.5t-147 17.5q-215 0 -333.5 -144.5t-118.5 -408.5q0 -178 47 -311 q180 94 407 94q94 0 177 -17q75 -15 94 -18l28 -4q41 0 58 39l51 6q41 -176 57 -277l60 -34q-20 -32 -45 -64l12 -84h-47l-15 31q-176 -170 -473 -170q-229 0 -401 102q-10 -72 -10 -139q0 -325 166 -506q164 -182 372 -182q238 0 371 207l70 -41q-180 -287 -568 -287 q-215 0 -381 90t-258 253.5t-92 375.5zM530 1176q19 -27 52 -64q164 -182 372 -182q183 0 308 125q-83 155 -165 212.5t-229 57.5q-219 0 -338 -149z" />
<glyph unicode="D" horiz-adv-x="1763" d="M31 0v47l260 12q29 0 39 25t12 70q2 23 2 145v551h-313v47l260 12q29 0 39 25t12 70q2 20 2 124q0 81 -2 95q-5 84 -51 84l-213 12v47h266v598q0 93 -2 109q-5 84 -51 84l-213 12v47h766q821 0 821 -721q0 -234 -117 -408q117 -171 117 -442q0 -196 -83.5 -351.5 t-203.5 -211.5q-110 -51 -184.5 -66.5t-185.5 -15.5h-977zM631 297q0 -76 16 -223l166 -6q124 0 206.5 29.5t156.5 103.5q76 76 120.5 202t44.5 273q0 118 -28 227q-81 -32 -145.5 -42.5t-159.5 -10.5h-377v-553zM631 1110q3 -65 16 -186l166 -6q124 0 206.5 29.5 t156.5 103.5q28 28 51 61q-59 94 -119 123q-82 39 -151 50t-197 11l-113 -4q-14 -120 -16 -182zM631 1366h213q276 0 463 -84q34 109 34 244q0 193 -71 353.5t-162 205.5q-82 39 -151 50t-197 11l-113 -4q-16 -141 -16 -229v-547z" />
<glyph unicode="E" horiz-adv-x="1423" d="M109 0v47l165 12q16 0 22 1.5t11 8t10 23.5q11 45 11 207v551h-219v47l165 12q16 0 22 1.5t11 8t10 23.5q11 43 11 197q0 70 -2 84q-1 23 -3.5 36.5t-14.5 29t-34 18.5l-137 12v47h191v598q0 93 -2 109q-1 23 -3.5 36.5t-14.5 29t-34 18.5l-137 12v47h918q56 0 66 2.5 t46 24.5l29 16l39 -27q-52 -135 -100 -303h-48q-5 39 -7.5 56t-8.5 44t-10.5 37t-16 26.5t-21.5 21t-31 13.5t-41 10t-55 4t-69 3h-86h-110q-17 -163 -17 -223v-328l27 -2h164h12q59 0 71 8.5t21 57.5q1 2 1 5q2 8 3 13l29 121h47v-430h66q56 0 66 2.5t46 24.5l29 16l39 -27 q-52 -135 -100 -303h-48q-5 39 -7.5 56t-8.5 44t-10.5 37t-16 26.5t-21.5 21t-31 13.5t-41 10t-55 4t-69 3h-86h-110q-15 -155 -17 -192q1 -18 3.5 -45t3.5 -35q9 -82 10 -90q96 -12 186 -12q47 0 121 4l4 22h47v-14q105 19 192 71t201 162l41 -26q-61 -106 -93.5 -171 t-88.5 -192h-53q-11 51 -19 60q-13 13 -71 14h-43h-66v-387h-47l-33 123l-14 55q-3 22 -33 25q-55 8 -188 8h-60v-381q0 -60 7 -121q9 -82 10 -90q96 -12 186 -12q187 0 300 49t265 196l41 -26q-61 -106 -93.5 -171t-88.5 -192h-53q-11 51 -19 60q-13 13 -71 14h-43h-946z M614 743l27 -2h164h12q59 0 71 8.5t21 57.5q1 2 1 5q2 8 3 13l7 25h-306v-107zM614 1366h314l-19 70l-14 55q-3 22 -33 25q-55 8 -188 8h-60v-158z" />
<glyph unicode="F" horiz-adv-x="1212" d="M66 0v47l215 12q29 0 39 25t12 70q2 23 2 145v551h-268v47l215 12q29 0 39 25t12 70q2 18 2 114q0 110 -10 152q-9 37 -43 37l-195 12v47h248v598q0 114 -10 156q-9 37 -43 37l-195 12v47h823q155 0 176 6q22 3 31 39h49q21 -122 28 -196t7 -181h-49q-38 128 -70 191 q-7 12 -12.5 21t-13 16t-12 12t-14 8t-14 5t-18 3.5t-19.5 1.5t-24.5 1t-27.5 1q-36 2 -85 2t-112 -2h-84q-16 -74 -20 -116.5t-4 -112.5v-309h77q129 0 150 12q20 8 35 74l35 186h45q0 -34 -5 -346l-4 -166q113 0 131 6q22 3 31 39h49q21 -122 28 -196t7 -181h-49 q-38 128 -70 191q-25 44 -48 54.5t-81 12.5v-37h-47l-6 39q-32 2 -74.5 2t-95.5 -2h-84q-24 -115 -24 -207q0 -67 2 -83q1 -24 2.5 -36.5t6 -28.5t15 -23t27.5 -7l168 -12v-47h-221v-94h77q129 0 150 12q20 8 35 74l35 186h45q0 -34 -5 -346q-6 -190 -6 -276h-47l-26 180 q-8 54 -15.5 68t-42.5 24q-35 9 -107 9q-20 0 -42 -1h-51v-387q0 -122 2 -145q1 -24 2.5 -36.5t6 -28.5t15 -23t27.5 -7l168 -12v-47h-776zM621 1366h268l-10 70q-8 54 -15.5 68t-42.5 24q-35 9 -107 9q-20 0 -42 -1h-51v-170z" />
<glyph unicode="G" horiz-adv-x="1572" d="M96 692q0 229 131 408q-40 60 -73 145q-58 143 -58 293q0 199 99 361.5t273 255t388 92.5q150 0 262 -33q96 -28 144 -39q24 -6 32 -6q30 0 49 29h50l57 -457h-57l-41 86q-58 122 -92 180q-69 104 -201 145q-86 25 -172 25q-105 0 -193.5 -35.5t-144.5 -103.5 q-58 -70 -94.5 -206t-36.5 -294q0 -127 31 -242q181 105 407 105q150 0 262 -33q96 -28 144 -39q24 -6 32 -6q30 0 49 29h50l6 -47h223v-50l-129 -16q-48 -6 -61.5 -20.5t-14.5 -65.5l33 -258h-57l-39 82q-104 -89 -218.5 -127.5t-273.5 -38.5q-255 0 -426 92 q-18 -99 -18 -211q0 -287 143.5 -469t370.5 -182q129 0 179 46t50 167q0 112 -31 127q-38 16 -231 31v47h723v-49l-129 -17q-54 -7 -65 -25t-11 -94q0 -34 8 -75q-123 -128 -250.5 -181t-312.5 -53q-137 0 -249 27.5t-184.5 68.5t-129.5 102t-88 115t-57 121 q-58 143 -58 293zM514 1139q68 -120 176 -186t242 -66q129 0 179 46t50 167q0 112 -31 127q-35 15 -231 30v48h166l-6 2q-83 24 -172 24q-105 0 -193.5 -35.5t-144.5 -103.5q-20 -24 -35 -53z" />
<glyph unicode="H" horiz-adv-x="1894" d="M109 0v47l176 12q16 0 22 1.5t11 8t10 23.5q4 18 8 62q2 23 2 145v551h-229v47l176 12q16 0 22 1.5t11 8t10 23.5q4 18 8 62q2 20 2 124q0 81 -2 95q-1 19 -2.5 28.5t-6 25t-15 23t-27.5 7.5l-176 12v47h229v598q0 93 -2 109q-1 19 -2.5 28.5t-6 25t-15 23t-27.5 7.5 l-176 12v47h731v-47l-162 -12q-16 0 -21.5 -1.5t-10.5 -8t-9 -23.5q-12 -40 -12 -207v-336h643v383q0 93 -2 109q-1 24 -3.5 38t-14.5 30t-34 16l-186 12v47h791v-47l-211 -12q-16 0 -21.5 -1.5t-10.5 -8t-9 -23.5q-13 -43 -13 -207v-551h265v-47l-211 -12q-16 0 -21.5 -1.5 t-10.5 -8t-9 -23.5q-13 -40 -13 -184q0 -70 2 -86q2 -45 12.5 -70t39.5 -25l211 -12v-47h-265v-551q0 -122 2 -145q2 -45 12.5 -70t39.5 -25l211 -12v-47h-791v47l186 12q31 0 41 29q13 51 13 211v348h-643v-348q0 -122 2 -145q1 -24 2.5 -36.5t6 -28.5t15 -23t27.5 -7 l162 -12v-47h-731zM625 731h643v119h-240v47l186 12q31 0 41 29q13 48 13 203q0 68 -2 82q-1 24 -3.5 38t-14.5 30t-34 16l-186 12v47h240v131h-643v-131h215v-47l-162 -12q-16 0 -21.5 -1.5t-10.5 -8t-9 -23.5q-12 -37 -12 -184q0 -70 2 -86q1 -24 2.5 -36.5t6 -28.5 t15 -23t27.5 -7l162 -12v-47h-215v-119z" />
<glyph unicode="I" horiz-adv-x="946" d="M47 1319v47h283v598q0 113 -11 158q-9 35 -43 35l-229 12v47h840v-47l-217 -12q-31 0 -41 -29q-13 -51 -13 -211v-551h271v-47l-217 -12q-31 0 -41 -29q-13 -46 -13 -188q0 -70 2 -86q2 -45 12.5 -70t39.5 -25l221 -12v-47h-275v-551q0 -122 2 -145q2 -45 12.5 -70 t39.5 -25l221 -12v-47h-836v47l221 12q32 0 41 31q13 51 13 209v551h-275v47l221 12q32 0 41 31q13 51 13 209v27q0 53 -11 96q-9 35 -43 35z" />
<glyph unicode="J" horiz-adv-x="1103" d="M-25 139q0 57 38.5 98.5t92.5 41.5q53 0 88 -39t35 -97q0 -45 -26 -98l61 -6q133 0 189.5 99t56.5 333v412q-107 -70 -266 -70q-118 0 -193.5 49t-75.5 127q0 57 38.5 98t92.5 41t88.5 -38.5t34.5 -96.5q0 -45 -26 -98l61 -6q117 0 174.5 74.5t67.5 244.5q-3 41 -6 60 q-9 39 -45 39l-207 12v47h262v551q0 156 -10 201q-9 39 -45 39l-207 12v47h788v-47l-186 -12q-16 0 -21.5 -1.5t-10.5 -8t-9 -23.5q-12 -40 -12 -207v-426q0 -47 -4 -125h243v-47l-186 -12q-16 0 -21.5 -1.5t-10.5 -8t-9 -23.5q-12 -40 -12 -207v-426q0 -170 -37.5 -278.5 t-159.5 -249.5q-126 -150 -356 -150q-118 0 -193.5 49t-75.5 127z" />
<glyph unicode="K" horiz-adv-x="1751" d="M59 0v47l215 12q29 0 39.5 25t12.5 70q2 23 2 145v551h-269v47l215 12q29 0 39.5 25t12.5 70q2 20 2 116q0 112 -9 150q-9 37 -45 37l-184 12v47h238v598q0 118 -9 156q-9 37 -45 37l-184 12v47h737v-47l-159 -12q-16 0 -21.5 -1.5t-10.5 -8t-9 -23.5q-13 -43 -13 -207 v-340l410 440q80 86 80 115q0 6 -1 11t-4.5 8.5t-5.5 6t-8 4l-8 2t-10 2t-10 1.5q-12 2 -99 2v47h658v-47l-129 -4q-137 0 -177.5 -19t-152.5 -135l-10 -10l-217 -225l241 -410h445v-47l-129 -4q-113 0 -153 -10t-93 -58l41 -67q44 -75 77.5 -120.5t70.5 -80.5t83 -51 t101 -23.5t137 -7.5v-47h-606l-107 188l-108 -112l352 -596q44 -75 77.5 -120.5t70.5 -80.5t83 -51t101 -23.5t137 -7.5v-47h-606l-410 715l-121 -123v-293q0 -122 2 -145q2 -45 12.5 -70t39.5 -25l198 -12v-47h-807zM614 727l115 123h-115v-123zM614 1090q0 -70 2 -86 q2 -45 12.5 -70t39.5 -25l110 -6l209 223l-252 439l-121 -123v-76h213v-47l-159 -12q-16 0 -21.5 -1.5t-10.5 -8t-9 -23.5q-13 -40 -13 -184z" />
<glyph unicode="L" horiz-adv-x="1388" d="M59 0v47l236 12q31 0 41 29q12 47 12 211v551h-289v47l236 12q31 0 41 29q12 44 12 203q0 68 -2 82q-5 84 -51 84l-229 12v47h282v598q0 93 -2 109q-5 84 -51 84l-229 12v47h835v-47l-213 -12q-31 0 -41 -29q-12 -47 -12 -211v-551h266v-47l-213 -12q-31 0 -41 -29 q-8 -32 -12 -158q3 -81 20 -176q115 -14 289 -14q69 0 111.5 2.5t82 13t62.5 25t47.5 45.5t42 68t41.5 98h45l-63 -404h-62v29q0 31 -6 37t-41 6h-569v-547q0 -94 20 -209q115 -14 289 -14q69 0 111.5 2.5t82 13t62.5 25t47.5 45.5t42 68t41.5 98h45l-63 -404h-62v29 q0 31 -6 37t-41 6h-1145z" />
<glyph unicode="M" horiz-adv-x="2238" d="M2 0v47q65 7 98.5 11t77.5 11.5t63 10.5t46 14.5t36 17t24.5 23t19 28.5t11.5 38t10.5 46t8.5 58l80 549h-475v47q65 7 98.5 11t77.5 11.5t63 10.5t46 14.5t36 17t24.5 23t19 28.5t11.5 38t10.5 46t8.5 58l19 123q-45 28 -90 31l-27 2h-41l-41 4h-41l12 45h164q41 0 76 4 l76 516l4 64q0 55 -17 97.5t-44.5 67t-58 38t-62.5 16.5l-27 2h-41l-41 4h-41l12 45h164q48 0 144 8t202 8l465 -905l371 897l176 -4q85 0 283 19l12 -48q-139 -15 -203 -36q-68 -22 -76 -33q-10 -13 -10 -43q0 -65 105 -545l34 -162q61 6 138 12l12 -47q-93 -11 -137 -20 q82 -349 121 -385q33 -33 249 -33v-47h-454l37 -172q116 -553 168 -602q33 -33 249 -33v-47h-860v47q154 0 213 16q54 15 54 50v30q-2 9 -5 21.5t-4 15.5l-141 674h-68l-342 -813h-10l-420 813h-82l-65 -516q-10 -92 -10 -141q0 -84 37 -105q35 -21 221 -45v-47h-754z M498 1051q0 -31 2 -43l4 22l4 64q0 21 -4 53q-6 -55 -6 -96zM530 1374q88 6 168 6l465 -905l371 897h31l-92 443l-388 -920h-10l-485 938zM584 930l34 -8l-28 57zM1448 903h37l-12 58z" />
<glyph unicode="N" horiz-adv-x="1775" d="M0 1319v47h410l6 518l-129 146q-80 91 -128.5 115t-158.5 24v47h502l751 -850h97l6 537q0 186 -35 221q-38 30 -74 39q-38 6 -162 6v47h691v-47l-166 -12q-64 -7 -95.5 -30t-45 -73.5t-13.5 -150.5l-6 -537h326v-47l-166 -12q-64 -7 -95.5 -30t-45 -73.5t-13.5 -150.5 l-14 -1098h-72l-790 895h-74v-545q0 -145 24 -186q22 -41 51.5 -53.5t92.5 -12.5l102 -6v-47h-690v47l96 6q140 0 183 47.5t43 202.5l6 547h-328v47l96 6q115 0 162 30t57 116l-114 131q-80 91 -128.5 115t-158.5 24zM508 1360l840 -950l6 415l-846 953v-418z" />
<glyph unicode="O" horiz-adv-x="1753" d="M96 682q0 235 150 428q-150 190 -150 424q0 196 103 362t280 262.5t387 96.5q162 0 308.5 -57.5t252.5 -154.5t168 -231t62 -282q0 -236 -150 -426q150 -190 150 -426q0 -197 -103 -361.5t-281.5 -259t-393.5 -94.5q-214 0 -394 96t-284.5 261.5t-104.5 361.5zM412 684 q0 -185 60.5 -334.5t168 -234t240.5 -84.5q126 0 231 84.5t166 233.5t61 329q0 138 -34 250q-190 -113 -426 -113q-242 0 -435 119q-32 -122 -32 -250zM412 1536q0 -128 32 -250q191 117 422 117q239 0 441 -121q32 122 32 248q0 182 -62 331.5t-170.5 234.5t-240.5 85 q-128 0 -232 -83.5t-163 -231t-59 -330.5zM518 1110q64 -107 158 -167t205 -60q104 0 194 58t154 163q-66 106 -160 165.5t-203 59.5q-105 0 -195 -58t-153 -161z" />
<glyph unicode="P" horiz-adv-x="1439" d="M37 0v47l237 12q31 0 41 29q13 51 13 211v551h-291v47l237 12q31 0 41 29q13 48 13 203q0 68 -2 82q-5 84 -52 84l-213 12v47h267v598q0 93 -2 109q-5 84 -52 84l-213 12v47h523q268 0 352 -8q248 -20 364 -172q68 -92 68 -205q0 -77 -31 -148.5t-88 -123.5 q-60 -54 -152.5 -78.5t-244.5 -24.5q-44 0 -127 6q-110 4 -111 4v-100q243 0 322 -8q248 -20 364 -172q68 -92 68 -205q0 -77 -31 -148.5t-88 -123.5q-60 -54 -152.5 -78.5t-244.5 -24.5q-44 0 -127 6q-110 4 -111 4v-317q0 -122 2 -145q2 -45 12.5 -70t39.5 -25l221 -12 v-47h-852zM614 690q92 -12 127 -12q140 0 226 84.5t86 220.5q0 139 -101 226q-99 85 -253 85h-7h-63q-15 -141 -15 -217q0 -59 2 -73q2 -45 12.5 -70t39.5 -25l221 -12v-47h-275v-160zM614 1540q91 -12 127 -12q140 0 226 84.5t86 220.5q0 139 -101 226q-99 85 -253 85h-7 h-63q-15 -156 -15 -229v-375z" />
<glyph unicode="Q" horiz-adv-x="1757" d="M96 686q0 234 150 424q-150 198 -150 424q0 145 61 277.5t164 229t245.5 153.5t299.5 57q217 0 398 -96t286 -263t105 -368q0 -240 -146 -422q146 -189 146 -426q0 -84 -23 -178l29 -29l-41 -16q-59 -170 -203 -292t-356 -177q62 -26 93.5 -55t107.5 -128 q72 -97 124 -137q50 -41 95 -41q24 0 108 23l35 12l37 -37q-211 -80 -352 -80q-86 0 -152.5 45.5t-185.5 182.5q-98 113 -130 141q-50 43 -143 75q-34 11 -123 38q-92 27 -178.5 91t-153 150.5t-107 197.5t-40.5 224zM412 684q0 -182 61 -331t167.5 -233.5t236.5 -84.5 q135 0 246 97t167 257q-78 4 -143 51t-176 176q-98 113 -130 141q-50 43 -143 75q-34 11 -123 38q-67 18 -131 60q-32 -122 -32 -246zM412 1532q0 -128 32 -246q191 117 422 117q242 0 441 -121q32 122 32 244q0 180 -63 330t-171.5 235.5t-238.5 85.5q-126 0 -230.5 -84 t-164 -232t-59.5 -329zM520 1108q64 -106 157 -165.5t200 -59.5q103 0 194.5 58.5t155.5 162.5q-65 106 -159.5 165.5t-201.5 59.5q-104 0 -194 -58.5t-152 -162.5zM1061 831q63 -26 94.5 -54.5t106.5 -127.5q45 -59 69 -86q8 49 8 115q0 137 -34 252q-117 -66 -244 -99z " />
<glyph unicode="R" horiz-adv-x="1746" d="M53 0v47l232 12q29 0 39 25t12 70q2 23 2 145v551h-285v47l232 12q29 0 39 25t12 70q2 20 2 124q0 81 -2 95q-1 19 -2.5 28.5t-6 25t-15 23t-27.5 7.5l-209 12v47h262v598q0 93 -2 109q-1 19 -2.5 28.5t-6 25t-15 23t-27.5 7.5l-209 12v47h598q221 0 306.5 -11.5 t201.5 -66.5q123 -58 123 -246q0 -206 -187 -264q-65 -21 -153 -29q67 -18 103.5 -41.5t72.5 -74.5q37 -52 59 -94q16 -33 109 -246q85 -205 252 -205q37 0 75 19t95 65l38 -41q-109 -97 -174 -127.5t-163 -30.5q-103 0 -187 33q-46 -53 -127 -78q-60 -20 -153 -28 q67 -18 103.5 -41.5t72.5 -75.5q37 -52 59 -94q16 -33 109 -246q85 -205 252 -205q37 0 75 19t95 65l38 -41q-109 -97 -174 -127.5t-163 -30.5q-48 0 -91 7t-76.5 18t-64.5 29.5t-53 35.5t-43.5 42.5t-34.5 44t-28 45.5t-22 42.5t-17.5 40.5t-14.5 33q-37 75 -88 207 q-53 132 -98.5 170.5t-143.5 38.5h-32v-428q0 -122 2 -145q1 -22 3 -36.5t7 -29t15.5 -22t25.5 -7.5l201 -12v-47h-826zM625 799q158 0 252 51h-252v-51zM625 1073q0 -55 2 -69q1 -22 3 -36.5t7 -29t15.5 -22t25.5 -7.5l201 -12v-45q114 62 114 199q0 243 -362 243z M625 1366h49q168 0 227 -4l-2 6q-53 132 -98.5 170.5t-143.5 38.5h-32v-211zM625 1649q179 0 273.5 65t94.5 187q0 243 -362 243l-6 -225v-270z" />
<glyph unicode="S" horiz-adv-x="1228" d="M25 27l151 446l47 -12l-6 -105q0 -152 89 -234.5t249 -82.5q134 0 215.5 71.5t81.5 188.5q0 83 -51 137q-55 58 -217 150q-126 70 -190 130t-87 136l-33 12q-114 51 -137 51q-19 0 -31 -12q-13 -13 -30 -51l-51 22l151 447l47 -12l-6 -105q0 -136 72 -217q1 165 100 279 t256 133l-61 35q-168 93 -231.5 177t-63.5 218q0 183 114.5 301.5t294.5 118.5q46 0 69 -3.5t87 -21.5t84 -18q34 0 72 32h45q3 -33 8 -101t8 -103q8 -91 8 -248h-47q-49 210 -123.5 299.5t-199.5 89.5q-94 0 -161 -59.5t-67 -143.5q0 -75 53 -131t203 -141 q151 -87 187 -112.5t106 -98.5q72 -78 72 -234q0 -75 -27 -143q4 -51 4 -174h-47l-16 66q-94 -117 -258 -164q132 -75 167.5 -101t104.5 -98q72 -78 72 -233q0 -192 -152.5 -317.5t-386.5 -125.5q-178 0 -289 51q-116 52 -137 52q-18 0 -31 -13t-30 -51zM481 1124 q0 -65 38 -113.5t138 -111.5q90 25 142.5 91t52.5 157q0 83 -51 137q-18 18 -45 39q-32 4 -47 4q-94 0 -161 -59.5t-67 -143.5z" />
<glyph unicode="T" horiz-adv-x="1431" d="M0 993q43 221 63 410l46 14q21 -31 41 -41t69 -10h338v522q0 82 -16 256h-219q-115 0 -167 -57.5t-106 -243.5h-49q43 221 63 410l46 14q21 -31 41 -41t69 -10h1022q68 0 90 8t53 43l48 -22q-1 -7 -14 -74t-17.5 -97.5t-10.5 -97t-6 -133.5h-49q-21 105 -37 151.5 t-43 78.5q-28 31 -87 51t-126 20h-180l-4 -41q0 -95 -6 -145q-8 -47 -8 -72v-520h397q68 0 90 8t53 43l48 -22q-1 -7 -14 -74t-17.5 -97.5t-10.5 -97t-6 -133.5h-49q-21 105 -37 151.5t-43 78.5q-28 31 -87 51t-126 20h-180l-4 -41q0 -95 -6 -145q-2 -16 -4.5 -35.5 t-3.5 -23.5l2 -45q1 -22 3 -36.5t7 -29t15.5 -22t25.5 -7.5l209 -12v-47h-262v-551q0 -122 2 -145q1 -22 3 -36.5t7 -29t15.5 -22t25.5 -7.5l209 -12v-47h-827v47l225 12q32 0 41 31q12 47 12 209v551h-278v47l225 12q32 0 41 31q8 28 12 137q-2 67 -16 217h-219 q-115 0 -167 -57.5t-106 -243.5h-49z" />
<glyph unicode="U" horiz-adv-x="1685" d="M59 1319v47h242v594q0 92 -2 108q-1 19 -2.5 28.5t-6 25t-15 23t-27.5 7.5l-189 13v47h768v-47l-186 -13q-16 0 -21.5 -1t-10.5 -7.5t-9 -23.5q-12 -40 -12 -207v-506v-41h239v-47l-186 -12q-16 0 -21.5 -1.5t-10.5 -8t-9 -23.5l-4 -19q11 -93 45 -153q103 -160 283 -160 q294 0 344 326q-16 39 -45 39l-215 12v47h268v39v555q0 92 -2 108q-5 84 -51 84l-215 13v47h616v-47l-199 -13q-16 0 -21.5 -1t-10.5 -7.5t-9 -23.5q-12 -40 -12 -207v-496v-51h252v-47l-199 -12q-16 0 -21.5 -1.5t-10.5 -8t-9 -23.5q-12 -40 -12 -207v-496 q0 -154 -18.5 -240.5t-75.5 -168.5q-60 -88 -175 -142.5t-253 -54.5q-160 0 -288 66.5t-177 163.5q-84 154 -84 299v620q0 93 -2 109q-1 19 -2.5 28.5t-6 25t-15 23t-27.5 7.5zM588 561q0 -222 53 -305q103 -160 283 -160q352 0 352 463v447q-60 -88 -174.5 -141.5 t-251.5 -53.5q-143 0 -262 55v-305z" />
<glyph unicode="V" horiz-adv-x="1828" d="M0 1319v47h616l-251 569q-36 79 -62.5 120t-68.5 69t-93.5 35.5t-140.5 7.5v47h887v-47q-128 0 -187 -19q-55 -21 -55 -57q0 -19 18.5 -79.5t41.5 -113.5l301 -733l358 822q20 44 20 81q0 49 -38 66q-51 19 -187 33v47h670v-47q-56 -6 -90 -11t-70.5 -15t-56.5 -19 t-45.5 -30t-40 -40t-37 -58t-39.5 -75.5t-45 -99.5l-203 -453h627v-47q-56 -6 -90 -11t-70.5 -15t-56.5 -19t-45.5 -30t-40 -40t-37 -58t-39.5 -75.5t-45 -99.5l-451 -1004h-92l-497 1120q-36 79 -62.5 120t-68.5 69t-93.5 35.5t-140.5 7.5zM645 1243q0 -19 18.5 -79 t41.5 -113l301 -734l358 822q20 44 20 82q0 48 -38 65q-40 16 -166 31l-226 -502h-92l-205 459q-12 -12 -12 -31z" />
<glyph unicode="W" horiz-adv-x="2344" d="M0 1319v47h584l-219 537q-21 51 -32 76.5t-29 57t-27 43.5t-32.5 29t-38.5 21.5t-52 13t-66.5 11t-87.5 8.5v47h846v-47q-134 0 -187 -17q-47 -15 -47 -57q0 -10 19 -59l313 -791l303 733h72l76 -198l110 -289q71 -172 105 -246l39 94v33h14l180 440l60 170q16 50 16 80 q0 56 -43 74q-59 19 -227 33v47h696v-47q-58 0 -92 -1t-64.5 -7.5t-45.5 -13t-32 -25t-26.5 -36t-26.5 -52.5q-23 -44 -145 -320l-146 -342h578v-47q-58 0 -92 -1t-64.5 -7.5t-45.5 -13t-32 -25t-26.5 -36t-26.5 -52.5q-23 -44 -145 -320l-211 -493l-164 -404h-53l-305 750 l-312 -750h-59l-444 1092q-21 51 -32 76.5t-29 57t-27 43.5t-32.5 29t-38.5 21.5t-52 13t-66.5 11t-87.5 8.5zM612 1245q0 -10 19 -59l313 -791l303 733h72l76 -198l110 -289q71 -172 105 -246l233 568l60 170q16 50 16 79q0 56 -43 74q-43 15 -133 23l-41 -95l-164 -403 h-53l-305 750l-312 -750h-59l-188 463q-9 -12 -9 -29z" />
<glyph unicode="X" horiz-adv-x="1593" d="M0 1319v47h596l57 90l-336 529q-48 74 -85 108t-87 51t-145 25v47h739v-47q-96 0 -127 -8q-34 -9 -34 -31q0 -6 11 -31t19 -37l240 -370l182 282q43 63 60 99q25 42 23.5 58.5t-36.5 27.5q-45 10 -127 10v47h582v-47q-60 0 -99.5 -2.5t-76.5 -12.5t-61.5 -24t-53 -42 t-52.5 -60.5t-59 -85.5l-225 -338l156 -238h471v-47q-146 0 -212 -27.5t-134 -120.5l94 -143q35 -55 101.5 -83t209.5 -48v-47h-622l-64 -96l375 -576q35 -55 101.5 -83t209.5 -48v-47h-766v47q92 9 119 19q25 6 25 24q0 34 -107 199l-149 231l-236 -370q-22 -36 -22 -52 q0 -21 30 -30q44 -13 136 -21v-47h-541v47q57 0 89 1t64 8t47 14t36.5 28.5t35.5 42t41 62.5l260 403l-155 244h-418v47q66 0 101 2.5t66 8.5t51.5 23.5t38 39t44.5 63.5l-64 101q-48 74 -85 108t-87 51t-145 25zM610 1208l215 -331v20l64 6l59 92q-25 49 -86 144l-123 190 v-10h-59zM711 1366h4l-2 4zM842 850l6 -8l6 8h-12zM1106 1294l6 -10q0 7 -6 10z" />
<glyph unicode="Y" horiz-adv-x="1527" d="M2 1319v47h647q0 44 -14 76q-15 29 -82 149l-221 373q-9 15 -25 43t-22.5 38.5t-19.5 31t-21 27.5t-22.5 20.5t-28 17.5t-33 11.5t-42.5 9.5t-51.5 4t-64.5 2v47h762v-47q-92 0 -133 -15t-41 -40t43 -101l252 -432l162 305l69 146q29 69 29 86q0 27 -45 39 q-46 12 -152 12v47h580v-47q-124 0 -160 -8q-41 -9 -63 -37l-62 -94l-82 -142l-160 -284q-45 -83 -55 -119.5t-10 -120.5v-215q0 -122 2 -145q1 -22 2 -33.5t5 -27.5t12.5 -24t21.5 -10l68 127l69 146q29 69 29 86q0 27 -45 39q-46 12 -152 12v47h580v-47q-124 0 -160 -8 q-41 -9 -63 -37l-62 -94l-82 -142l-76 -135l72 -6v-47h-102l-54 -96q-45 -83 -55 -119.5t-10 -120.5v-215q0 -122 2 -145q1 -24 2.5 -36.5t6 -28.5t15 -23t27.5 -7l168 -12v-47h-762v47l199 12q36 0 45 33q10 33 10 207v215q0 46 -14 78q-15 29 -82 149l-64 109h-94v47l64 4 l-127 213q-9 15 -25 43t-22.5 38.5t-19.5 31t-21 27.5t-22.5 20.5t-28 17.5t-33 11.5t-42.5 9.5t-51.5 4t-64.5 2zM590 1264q0 -25 43 -101l16 -28v14v162l-18 -6q-41 -15 -41 -41zM815 850l70 -119l63 119h-133z" />
<glyph unicode="Z" horiz-adv-x="1482" d="M18 0l13 70q44 32 63.5 50t59.5 66l553 664h-689l13 70q44 32 63.5 50t59.5 66l219 264l47 103h39l600 721h-240q-131 0 -196 -13t-119 -50t-137 -128l-70 -71h-53l30 67l88 197l58 127h53q6 -40 39 -43q40 -4 369 -4q161 0 333 8t211 8l35 -70q-64 -40 -149 -143 l-551 -653h121q161 0 333 8t211 8l35 -69q-62 -39 -149 -144l-62 -74l-110 -327h-60v30q0 28 -6.5 41t-25.5 17l-633 -750l192 -4q86 0 138 1t107.5 6.5t86.5 11.5t69.5 22.5t60 33t55 50t59 65.5t67.5 87l37 -23l-147 -438h-60v31q0 37 -15.5 49t-62.5 12h-983zM414 946 l192 -4q129 0 180 2l273 330h-240q-94 0 -133 -4z" />
<glyph unicode="[" horiz-adv-x="690" d="M264 -387v2607l367 33v-33l-201 -45v-791l201 19v-33l-201 -45v-817l201 -39v-37l-201 17v-791l201 -39v-37z" />
<glyph unicode="\" horiz-adv-x="884" d="M-39 1366l707 -1749h180l-150 383l-557 1366h-180zM-39 2216l707 -1749h180l-150 383l-557 1366h-180z" />
<glyph unicode="]" horiz-adv-x="690" d="M59 -385l201 45v791l-201 -19v33l201 45v815l-201 41v37l201 -17v789l-201 41v37l367 -31v-2607l-367 -33v33z" />
<glyph unicode="^" d="M-53 582h248l403 600l387 -600h94l-544 852h-15zM-53 1432h248l403 600l387 -600h94l-544 852h-15z" />
<glyph unicode="_" d="M37 -182v-109h950v109h-950zM37 559h950v109h-950v-109z" />
<glyph unicode="`" d="M336 946q128 -141 321 -270l31 29q-78 74 -122.5 134t-82.5 144zM336 1796q128 -141 321 -270l31 28q-78 74 -122.5 134t-82.5 145z" />
<glyph unicode="a" horiz-adv-x="1556" d="M12 0v47q59 0 95 2t69 11t51 21t36.5 37.5t31 54.5t29.5 79l202 598h-514v47q59 0 95 2t69 11t51 21t36.5 37.5t31 54.5t29.5 79l327 964l-47 140l80 39q43 -19 66 -19q14 0 34 4q23 6 66 23l37 14l399 -1190q36 -100 66 -123q31 -28 59 -34q22 -7 135 -23v-47h-469 l209 -623q36 -100 66 -123q31 -28 59 -34q22 -7 135 -23v-47h-755v47l69 4q85 0 119 17q31 16 31 61l-6 37l-103 311l-201 4l-204 -4l-88 -272q-21 -59 -21 -99q0 -32 23 -45t86 -14h94v-47h-578zM387 956q0 -32 23 -44.5t86 -12.5h47l108 318l-39 112l-116 -2l-88 -272 q-21 -59 -21 -99zM524 563l174 -4l172 4l-174 522zM524 1413l174 -4l172 4l-174 522z" />
<glyph unicode="b" horiz-adv-x="1517" d="M18 0v47l269 12q29 0 39 25t12 70q2 23 2 145v551h-322v47l269 12q29 0 39 25t12 70q2 18 2 114q0 110 -10 152q-9 37 -43 37l-262 12v47h315v598q0 114 -10 156q-9 37 -43 37l-262 12v47h626l183 -4q165 0 240.5 -23t150.5 -96q73 -76 73 -205q0 -92 -56 -146t-200 -104 q201 -47 296.5 -145.5t95.5 -259.5q0 -92 -42.5 -172t-119.5 -133q-49 -77 -230 -140q201 -47 296.5 -145.5t95.5 -259.5q0 -106 -55.5 -194.5t-153.5 -137.5q-96 -51 -326 -51h-881zM627 297q0 -90 20 -223l109 -6q138 0 214 46t117 130q37 75 37 159q0 83 -40 163t-97 116 q-56 35 -118 47t-173 12h-69v-444zM627 817h55q118 0 188 33h-243v-33zM627 1104q3 -61 20 -180l109 -6q147 0 233 57q8 27 8 63q0 111 -92 184.5t-233 73.5h-29q-13 -128 -16 -192zM627 1366h24l183 -4q108 0 171 -8t111 -31q-13 66 -49 123.5t-80 85.5q-56 35 -118 47 t-173 12h-69v-225zM627 1667h55q152 0 233.5 57.5t81.5 163.5q0 111 -92 184.5t-233 73.5h-29q-16 -154 -16 -229v-250z" />
<glyph unicode="c" horiz-adv-x="1466" d="M96 682q0 241 127 416q-127 181 -127 430q0 210 97 373.5t273.5 254.5t403.5 91q94 0 177 -17q75 -15 94 -18l28 -4q41 0 58 39l51 6q52 -214 84 -459h-47q-55 115 -96 180.5t-92.5 113.5t-111.5 65.5t-147 17.5q-215 0 -333.5 -144.5t-118.5 -408.5q0 -178 47 -311 q180 94 407 94q94 0 177 -17q75 -15 94 -18l28 -4q41 0 58 39l51 6q41 -176 57 -277l60 -34q-20 -32 -45 -64l12 -84h-47l-15 31q-176 -170 -473 -170q-229 0 -401 102q-10 -72 -10 -139q0 -325 166 -506q164 -182 372 -182q238 0 371 207l70 -41q-180 -287 -568 -287 q-215 0 -381 90t-258 253.5t-92 375.5zM530 1176q19 -27 52 -64q164 -182 372 -182q183 0 308 125q-83 155 -165 212.5t-229 57.5q-219 0 -338 -149z" />
<glyph unicode="d" horiz-adv-x="1763" d="M31 0v47l260 12q29 0 39 25t12 70q2 23 2 145v551h-313v47l260 12q29 0 39 25t12 70q2 20 2 124q0 81 -2 95q-5 84 -51 84l-213 12v47h266v598q0 93 -2 109q-5 84 -51 84l-213 12v47h766q821 0 821 -721q0 -234 -117 -408q117 -171 117 -442q0 -196 -83.5 -351.5 t-203.5 -211.5q-110 -51 -184.5 -66.5t-185.5 -15.5h-977zM631 297q0 -76 16 -223l166 -6q124 0 206.5 29.5t156.5 103.5q76 76 120.5 202t44.5 273q0 118 -28 227q-81 -32 -145.5 -42.5t-159.5 -10.5h-377v-553zM631 1110q3 -65 16 -186l166 -6q124 0 206.5 29.5 t156.5 103.5q28 28 51 61q-59 94 -119 123q-82 39 -151 50t-197 11l-113 -4q-14 -120 -16 -182zM631 1366h213q276 0 463 -84q34 109 34 244q0 193 -71 353.5t-162 205.5q-82 39 -151 50t-197 11l-113 -4q-16 -141 -16 -229v-547z" />
<glyph unicode="e" horiz-adv-x="1423" d="M109 0v47l165 12q16 0 22 1.5t11 8t10 23.5q11 45 11 207v551h-219v47l165 12q16 0 22 1.5t11 8t10 23.5q11 43 11 197q0 70 -2 84q-1 23 -3.5 36.5t-14.5 29t-34 18.5l-137 12v47h191v598q0 93 -2 109q-1 23 -3.5 36.5t-14.5 29t-34 18.5l-137 12v47h918q56 0 66 2.5 t46 24.5l29 16l39 -27q-52 -135 -100 -303h-48q-5 39 -7.5 56t-8.5 44t-10.5 37t-16 26.5t-21.5 21t-31 13.5t-41 10t-55 4t-69 3h-86h-110q-17 -163 -17 -223v-328l27 -2h164h12q59 0 71 8.5t21 57.5q1 2 1 5q2 8 3 13l29 121h47v-430h66q56 0 66 2.5t46 24.5l29 16l39 -27 q-52 -135 -100 -303h-48q-5 39 -7.5 56t-8.5 44t-10.5 37t-16 26.5t-21.5 21t-31 13.5t-41 10t-55 4t-69 3h-86h-110q-15 -155 -17 -192q1 -18 3.5 -45t3.5 -35q9 -82 10 -90q96 -12 186 -12q47 0 121 4l4 22h47v-14q105 19 192 71t201 162l41 -26q-61 -106 -93.5 -171 t-88.5 -192h-53q-11 51 -19 60q-13 13 -71 14h-43h-66v-387h-47l-33 123l-14 55q-3 22 -33 25q-55 8 -188 8h-60v-381q0 -60 7 -121q9 -82 10 -90q96 -12 186 -12q187 0 300 49t265 196l41 -26q-61 -106 -93.5 -171t-88.5 -192h-53q-11 51 -19 60q-13 13 -71 14h-43h-946z M614 743l27 -2h164h12q59 0 71 8.5t21 57.5q1 2 1 5q2 8 3 13l7 25h-306v-107zM614 1366h314l-19 70l-14 55q-3 22 -33 25q-55 8 -188 8h-60v-158z" />
<glyph unicode="f" horiz-adv-x="1212" d="M66 0v47l215 12q29 0 39 25t12 70q2 23 2 145v551h-268v47l215 12q29 0 39 25t12 70q2 18 2 114q0 110 -10 152q-9 37 -43 37l-195 12v47h248v598q0 114 -10 156q-9 37 -43 37l-195 12v47h823q155 0 176 6q22 3 31 39h49q21 -122 28 -196t7 -181h-49q-38 128 -70 191 q-7 12 -12.5 21t-13 16t-12 12t-14 8t-14 5t-18 3.5t-19.5 1.5t-24.5 1t-27.5 1q-36 2 -85 2t-112 -2h-84q-16 -74 -20 -116.5t-4 -112.5v-309h77q129 0 150 12q20 8 35 74l35 186h45q0 -34 -5 -346l-4 -166q113 0 131 6q22 3 31 39h49q21 -122 28 -196t7 -181h-49 q-38 128 -70 191q-25 44 -48 54.5t-81 12.5v-37h-47l-6 39q-33 2 -75 2t-95 -2h-84q-24 -115 -24 -207q0 -67 2 -83q1 -24 2.5 -36.5t6 -28.5t15 -23t27.5 -7l168 -12v-47h-221v-94h77q129 0 150 12q20 8 35 74l35 186h45q0 -34 -5 -346q-6 -190 -6 -276h-47l-26 180 q-8 54 -15.5 68t-42.5 24q-35 9 -107 9q-20 0 -42 -1h-51v-387q0 -122 2 -145q1 -24 2.5 -36.5t6 -28.5t15 -23t27.5 -7l168 -12v-47h-776zM621 1366h268l-10 70q-8 54 -15.5 68t-42.5 24q-35 9 -107 9q-20 0 -42 -1h-51v-170z" />
<glyph unicode="g" horiz-adv-x="1572" d="M96 692q0 229 131 408q-40 60 -73 145q-58 143 -58 293q0 199 99 361.5t273 255t388 92.5q150 0 262 -33q96 -28 144 -39q24 -6 32 -6q30 0 49 29h50l57 -457h-57l-41 86q-58 122 -92 180q-69 104 -201 145q-86 25 -172 25q-105 0 -193.5 -35.5t-144.5 -103.5 q-58 -70 -94.5 -206t-36.5 -294q0 -127 31 -242q181 105 407 105q150 0 262 -33q96 -28 144 -39q24 -6 32 -6q30 0 49 29h50l6 -47h223v-50l-129 -16q-48 -6 -61.5 -20.5t-14.5 -65.5l33 -258h-57l-39 82q-104 -89 -218.5 -127.5t-273.5 -38.5q-255 0 -426 92 q-18 -99 -18 -211q0 -287 143.5 -469t370.5 -182q129 0 179 46t50 167q0 112 -31 127q-38 16 -231 31v47h723v-49l-129 -17q-54 -7 -65 -25t-11 -94q0 -34 8 -75q-123 -128 -250.5 -181t-312.5 -53q-137 0 -249 27.5t-184.5 68.5t-129.5 102t-88 115t-57 121 q-58 143 -58 293zM514 1139q68 -120 176 -186t242 -66q129 0 179 46t50 167q0 112 -31 127q-35 15 -231 30v48h166l-6 2q-83 24 -172 24q-105 0 -193.5 -35.5t-144.5 -103.5q-20 -24 -35 -53z" />
<glyph unicode="h" horiz-adv-x="1894" d="M109 0v47l176 12q16 0 22 1.5t11 8t10 23.5q4 18 8 62q2 23 2 145v551h-229v47l176 12q16 0 22 1.5t11 8t10 23.5q4 18 8 62q2 20 2 124q0 81 -2 95q-1 19 -2.5 28.5t-6 25t-15 23t-27.5 7.5l-176 12v47h229v598q0 93 -2 109q-1 19 -2.5 28.5t-6 25t-15 23t-27.5 7.5 l-176 12v47h731v-47l-162 -12q-16 0 -21.5 -1.5t-10.5 -8t-9 -23.5q-12 -40 -12 -207v-336h643v383q0 93 -2 109q-1 24 -3.5 38t-14.5 30t-34 16l-186 12v47h791v-47l-211 -12q-16 0 -21.5 -1.5t-10.5 -8t-9 -23.5q-13 -43 -13 -207v-551h265v-47l-211 -12q-16 0 -21.5 -1.5 t-10.5 -8t-9 -23.5q-13 -40 -13 -184q0 -70 2 -86q2 -45 12.5 -70t39.5 -25l211 -12v-47h-265v-551q0 -122 2 -145q2 -45 12.5 -70t39.5 -25l211 -12v-47h-791v47l186 12q31 0 41 29q13 51 13 211v348h-643v-348q0 -122 2 -145q1 -24 2.5 -36.5t6 -28.5t15 -23t27.5 -7 l162 -12v-47h-731zM625 731h643v119h-240v47l186 12q31 0 41 29q13 48 13 203q0 68 -2 82q-1 24 -3.5 38t-14.5 30t-34 16l-186 12v47h240v131h-643v-131h215v-47l-162 -12q-16 0 -21.5 -1.5t-10.5 -8t-9 -23.5q-12 -37 -12 -184q0 -70 2 -86q1 -24 2.5 -36.5t6 -28.5 t15 -23t27.5 -7l162 -12v-47h-215v-119z" />
<glyph unicode="i" horiz-adv-x="946" d="M47 1319v47h283v598q0 113 -11 158q-9 35 -43 35l-229 12v47h840v-47l-217 -12q-31 0 -41 -29q-13 -51 -13 -211v-551h271v-47l-217 -12q-31 0 -41 -29q-13 -46 -13 -188q0 -70 2 -86q2 -45 12.5 -70t39.5 -25l221 -12v-47h-275v-551q0 -122 2 -145q2 -45 12.5 -70 t39.5 -25l221 -12v-47h-836v47l221 12q32 0 41 31q13 51 13 209v551h-275v47l221 12q32 0 41 31q13 51 13 209v27q0 53 -11 96q-9 35 -43 35z" />
<glyph unicode="j" horiz-adv-x="1103" d="M-25 139q0 57 38.5 98.5t92.5 41.5q53 0 88 -39t35 -97q0 -45 -26 -98l61 -6q133 0 189.5 99t56.5 333v412q-107 -70 -266 -70q-118 0 -193.5 49t-75.5 127q0 57 38.5 98t92.5 41t88.5 -38.5t34.5 -96.5q0 -45 -26 -98l61 -6q117 0 174.5 74.5t67.5 244.5q-3 41 -6 60 q-9 39 -45 39l-207 12v47h262v551q0 156 -10 201q-9 39 -45 39l-207 12v47h788v-47l-186 -12q-16 0 -21.5 -1.5t-10.5 -8t-9 -23.5q-12 -40 -12 -207v-426q0 -47 -4 -125h243v-47l-186 -12q-16 0 -21.5 -1.5t-10.5 -8t-9 -23.5q-12 -40 -12 -207v-426q0 -170 -37.5 -278.5 t-159.5 -249.5q-126 -150 -356 -150q-118 0 -193.5 49t-75.5 127z" />
<glyph unicode="k" horiz-adv-x="1751" d="M59 0v47l215 12q29 0 39.5 25t12.5 70q2 23 2 145v551h-269v47l215 12q29 0 39.5 25t12.5 70q2 20 2 116q0 112 -9 150q-9 37 -45 37l-184 12v47h238v598q0 118 -9 156q-9 37 -45 37l-184 12v47h737v-47l-159 -12q-16 0 -21.5 -1.5t-10.5 -8t-9 -23.5q-13 -43 -13 -207 v-340l410 440q80 86 80 115q0 6 -1 11t-4.5 8.5t-5.5 6t-8 4l-8 2t-10 2t-10 1.5q-12 2 -99 2v47h658v-47l-129 -4q-137 0 -177.5 -19t-152.5 -135l-10 -10l-217 -225l241 -410h445v-47l-129 -4q-113 0 -153 -10t-93 -58l41 -67q44 -75 77.5 -120.5t70.5 -80.5t83 -51 t101 -23.5t137 -7.5v-47h-606l-107 188l-108 -112l352 -596q44 -75 77.5 -120.5t70.5 -80.5t83 -51t101 -23.5t137 -7.5v-47h-606l-410 715l-121 -123v-293q0 -122 2 -145q2 -45 12.5 -70t39.5 -25l198 -12v-47h-807zM614 727l115 123h-115v-123zM614 1090q0 -70 2 -86 q2 -45 12.5 -70t39.5 -25l110 -6l209 223l-252 439l-121 -123v-76h213v-47l-159 -12q-16 0 -21.5 -1.5t-10.5 -8t-9 -23.5q-13 -40 -13 -184z" />
<glyph unicode="l" horiz-adv-x="1388" d="M59 0v47l236 12q31 0 41 29q12 47 12 211v551h-289v47l236 12q31 0 41 29q12 44 12 203q0 68 -2 82q-5 84 -51 84l-229 12v47h282v598q0 93 -2 109q-5 84 -51 84l-229 12v47h835v-47l-213 -12q-31 0 -41 -29q-12 -47 -12 -211v-551h266v-47l-213 -12q-31 0 -41 -29 q-8 -32 -12 -158q3 -81 20 -176q115 -14 289 -14q69 0 111.5 2.5t82 13t62.5 25t47.5 45.5t42 68t41.5 98h45l-63 -404h-62v29q0 31 -6 37t-41 6h-569v-547q0 -94 20 -209q115 -14 289 -14q69 0 111.5 2.5t82 13t62.5 25t47.5 45.5t42 68t41.5 98h45l-63 -404h-62v29 q0 31 -6 37t-41 6h-1145z" />
<glyph unicode="m" horiz-adv-x="2238" d="M2 0v47q65 7 98.5 11t77.5 11.5t63 10.5t46 14.5t36 17t24.5 23t19 28.5t11.5 38t10.5 46t8.5 58l80 549h-475v47q65 7 98.5 11t77.5 11.5t63 10.5t46 14.5t36 17t24.5 23t19 28.5t11.5 38t10.5 46t8.5 58l19 123q-45 28 -90 31l-27 2h-41l-41 4h-41l12 45h164q41 0 76 4 l76 516l4 64q0 55 -17 97.5t-44.5 67t-58 38t-62.5 16.5l-27 2h-41l-41 4h-41l12 45h164q48 0 144 8t202 8l465 -905l371 897l176 -4q85 0 283 19l12 -48q-139 -15 -203 -36q-68 -22 -76 -33q-10 -13 -10 -43q0 -65 105 -545l34 -162q61 6 138 12l12 -47q-93 -11 -137 -20 q82 -349 121 -385q33 -33 249 -33v-47h-454l37 -172q116 -553 168 -602q33 -33 249 -33v-47h-860v47q154 0 213 16q54 15 54 50v30q-2 9 -5 21.5t-4 15.5l-141 674h-68l-342 -813h-10l-420 813h-82l-65 -516q-10 -92 -10 -141q0 -84 37 -105q35 -21 221 -45v-47h-754z M498 1051q0 -31 2 -43l4 22l4 64q0 21 -4 53q-6 -55 -6 -96zM530 1374q88 6 168 6l465 -905l371 897h31l-92 443l-388 -920h-10l-485 938zM584 930l34 -8l-28 57zM1448 903h37l-12 58z" />
<glyph unicode="n" horiz-adv-x="1775" d="M0 1319v47h410l6 518l-129 146q-80 91 -128.5 115t-158.5 24v47h502l751 -850h97l6 537q0 186 -35 221q-38 30 -74 39q-38 6 -162 6v47h691v-47l-166 -12q-64 -7 -95.5 -30t-45 -73.5t-13.5 -150.5l-6 -537h326v-47l-166 -12q-64 -7 -95.5 -30t-45 -73.5t-13.5 -150.5 l-14 -1098h-72l-790 895h-74v-545q0 -145 24 -186q22 -41 51.5 -53.5t92.5 -12.5l102 -6v-47h-690v47l96 6q140 0 183 47.5t43 202.5l6 547h-328v47l96 6q115 0 162 30t57 116l-114 131q-80 91 -128.5 115t-158.5 24zM508 1360l840 -950l6 415l-846 953v-418z" />
<glyph unicode="o" horiz-adv-x="1753" d="M96 682q0 235 150 428q-150 190 -150 424q0 196 103 362t280 262.5t387 96.5q162 0 308.5 -57.5t252.5 -154.5t168 -231t62 -282q0 -236 -150 -426q150 -190 150 -426q0 -197 -103 -361.5t-281.5 -259t-393.5 -94.5q-214 0 -394 96t-284.5 261.5t-104.5 361.5zM412 684 q0 -185 60.5 -334.5t168 -234t240.5 -84.5q126 0 231 84.5t166 233.5t61 329q0 138 -34 250q-190 -113 -426 -113q-242 0 -435 119q-32 -122 -32 -250zM412 1536q0 -128 32 -250q191 117 422 117q239 0 441 -121q32 122 32 248q0 182 -62 331.5t-170.5 234.5t-240.5 85 q-128 0 -232 -83.5t-163 -231t-59 -330.5zM518 1110q64 -107 158 -167t205 -60q104 0 194 58t154 163q-66 106 -160 165.5t-203 59.5q-105 0 -195 -58t-153 -161z" />
<glyph unicode="p" horiz-adv-x="1439" d="M37 0v47l237 12q31 0 41 29q13 51 13 211v551h-291v47l237 12q31 0 41 29q13 48 13 203q0 68 -2 82q-5 84 -52 84l-213 12v47h267v598q0 93 -2 109q-5 84 -52 84l-213 12v47h523q268 0 352 -8q248 -20 364 -172q68 -92 68 -205q0 -77 -31 -148.5t-88 -123.5 q-60 -54 -152.5 -78.5t-244.5 -24.5q-44 0 -127 6q-110 4 -111 4v-100q243 0 322 -8q248 -20 364 -172q68 -92 68 -205q0 -77 -31 -148.5t-88 -123.5q-60 -54 -152.5 -78.5t-244.5 -24.5q-44 0 -127 6q-110 4 -111 4v-317q0 -122 2 -145q2 -45 12.5 -70t39.5 -25l221 -12 v-47h-852zM614 690q92 -12 127 -12q140 0 226 84.5t86 220.5q0 139 -101 226q-99 85 -253 85h-7h-63q-15 -141 -15 -217q0 -59 2 -73q2 -45 12.5 -70t39.5 -25l221 -12v-47h-275v-160zM614 1540q91 -12 127 -12q140 0 226 84.5t86 220.5q0 139 -101 226q-99 85 -253 85h-7 h-63q-15 -156 -15 -229v-375z" />
<glyph unicode="q" horiz-adv-x="1757" d="M96 686q0 234 150 424q-150 198 -150 424q0 145 61 277.5t164 229t245.5 153.5t299.5 57q217 0 398 -96t286 -263t105 -368q0 -240 -146 -422q146 -189 146 -426q0 -84 -23 -178l29 -29l-41 -16q-59 -170 -203 -292t-356 -177q62 -26 93.5 -55t107.5 -128 q72 -97 124 -137q50 -41 95 -41q24 0 108 23l35 12l37 -37q-211 -80 -352 -80q-86 0 -152.5 45.5t-185.5 182.5q-98 113 -130 141q-50 43 -143 75q-34 11 -123 38q-92 27 -178.5 91t-153 150.5t-107 197.5t-40.5 224zM412 684q0 -182 61 -331t167.5 -233.5t236.5 -84.5 q135 0 246 97t167 257q-78 4 -143 51t-176 176q-98 113 -130 141q-50 43 -143 75q-34 11 -123 38q-67 18 -131 60q-32 -122 -32 -246zM412 1532q0 -128 32 -246q191 117 422 117q242 0 441 -121q32 122 32 244q0 180 -63 330t-171.5 235.5t-238.5 85.5q-126 0 -230.5 -84 t-164 -232t-59.5 -329zM520 1108q64 -106 157 -165.5t200 -59.5q103 0 194.5 58.5t155.5 162.5q-65 106 -159.5 165.5t-201.5 59.5q-104 0 -194 -58.5t-152 -162.5zM1061 831q63 -26 94.5 -54.5t106.5 -127.5q45 -59 69 -86q8 49 8 115q0 137 -34 252q-117 -66 -244 -99z " />
<glyph unicode="r" horiz-adv-x="1746" d="M53 0v47l232 12q29 0 39 25t12 70q2 23 2 145v551h-285v47l232 12q29 0 39 25t12 70q2 20 2 124q0 81 -2 95q-1 19 -2.5 28.5t-6 25t-15 23t-27.5 7.5l-209 12v47h262v598q0 93 -2 109q-1 19 -2.5 28.5t-6 25t-15 23t-27.5 7.5l-209 12v47h598q221 0 306.5 -11.5 t201.5 -66.5q123 -58 123 -246q0 -206 -187 -264q-65 -21 -153 -29q67 -18 103.5 -41.5t72.5 -74.5q37 -52 59 -94q16 -33 109 -246q85 -205 252 -205q37 0 75 19t95 65l38 -41q-109 -97 -174 -127.5t-163 -30.5q-103 0 -187 33q-46 -53 -127 -78q-60 -20 -153 -28 q67 -18 103.5 -41.5t72.5 -75.5q37 -52 59 -94q16 -33 109 -246q85 -205 252 -205q37 0 75 19t95 65l38 -41q-109 -97 -174 -127.5t-163 -30.5q-48 0 -91 7t-76.5 18t-64.5 29.5t-53 35.5t-43.5 42.5t-34.5 44t-28 45.5t-22 42.5t-17.5 40.5t-14.5 33q-37 75 -88 207 q-53 132 -98.5 170.5t-143.5 38.5h-32v-428q0 -122 2 -145q1 -22 3 -36.5t7 -29t15.5 -22t25.5 -7.5l201 -12v-47h-826zM625 799q158 0 252 51h-252v-51zM625 1073q0 -55 2 -69q1 -22 3 -36.5t7 -29t15.5 -22t25.5 -7.5l201 -12v-45q114 62 114 199q0 243 -362 243z M625 1366h49q168 0 227 -4l-2 6q-53 132 -98.5 170.5t-143.5 38.5h-32v-211zM625 1649q179 0 273.5 65t94.5 187q0 243 -362 243l-6 -225v-270z" />
<glyph unicode="s" horiz-adv-x="1228" d="M25 27l151 446l47 -12l-6 -105q0 -152 89 -234.5t249 -82.5q134 0 215.5 71.5t81.5 188.5q0 83 -51 137q-55 58 -217 150q-126 70 -190 130t-87 136l-33 12q-114 51 -137 51q-19 0 -31 -12q-13 -13 -30 -51l-51 22l151 447l47 -12l-6 -105q0 -136 72 -217q1 165 100 279 t256 133l-61 35q-168 93 -231.5 177t-63.5 218q0 183 114.5 301.5t294.5 118.5q46 0 69 -3.5t87 -21.5t84 -18q34 0 72 32h45q3 -33 8 -101t8 -103q8 -91 8 -248h-47q-49 210 -123.5 299.5t-199.5 89.5q-94 0 -161 -59.5t-67 -143.5q0 -75 53 -131t203 -141 q151 -87 187 -112.5t106 -98.5q72 -78 72 -234q0 -75 -27 -143q4 -51 4 -174h-47l-16 66q-94 -117 -258 -164q132 -75 167.5 -101t104.5 -98q72 -78 72 -233q0 -192 -152.5 -317.5t-386.5 -125.5q-178 0 -289 51q-116 52 -137 52q-18 0 -31 -13t-30 -51zM481 1124 q0 -65 38 -113.5t138 -111.5q90 25 142.5 91t52.5 157q0 83 -51 137q-18 18 -45 39q-32 4 -47 4q-94 0 -161 -59.5t-67 -143.5z" />
<glyph unicode="t" horiz-adv-x="1431" d="M0 993q43 221 63 410l46 14q21 -31 41 -41t69 -10h338v522q0 82 -16 256h-219q-115 0 -167 -57.5t-106 -243.5h-49q43 221 63 410l46 14q21 -31 41 -41t69 -10h1022q68 0 90 8t53 43l48 -22q-1 -7 -14 -74t-17.5 -97.5t-10.5 -97t-6 -133.5h-49q-21 105 -37 151.5 t-43 78.5q-28 31 -87 51t-126 20h-180l-4 -41q0 -95 -6 -145q-8 -47 -8 -72v-520h397q68 0 90 8t53 43l48 -22q-1 -7 -14 -74t-17.5 -97.5t-10.5 -97t-6 -133.5h-49q-21 105 -37 151.5t-43 78.5q-28 31 -87 51t-126 20h-180l-4 -41q0 -95 -6 -145q-2 -16 -4.5 -35.5 t-3.5 -23.5l2 -45q1 -22 3 -36.5t7 -29t15.5 -22t25.5 -7.5l209 -12v-47h-262v-551q0 -122 2 -145q1 -22 3 -36.5t7 -29t15.5 -22t25.5 -7.5l209 -12v-47h-827v47l225 12q32 0 41 31q12 47 12 209v551h-278v47l225 12q32 0 41 31q8 28 12 137q-2 67 -16 217h-219 q-115 0 -167 -57.5t-106 -243.5h-49z" />
<glyph unicode="u" horiz-adv-x="1685" d="M59 1319v47h242v594q0 92 -2 108q-1 19 -2.5 28.5t-6 25t-15 23t-27.5 7.5l-189 13v47h768v-47l-186 -13q-16 0 -21.5 -1t-10.5 -7.5t-9 -23.5q-12 -40 -12 -207v-506v-41h239v-47l-186 -12q-16 0 -21.5 -1.5t-10.5 -8t-9 -23.5l-4 -19q11 -93 45 -153q103 -160 283 -160 q294 0 344 326q-16 39 -45 39l-215 12v47h268v39v555q0 92 -2 108q-5 84 -51 84l-215 13v47h616v-47l-199 -13q-16 0 -21.5 -1t-10.5 -7.5t-9 -23.5q-12 -40 -12 -207v-496v-51h252v-47l-199 -12q-16 0 -21.5 -1.5t-10.5 -8t-9 -23.5q-12 -40 -12 -207v-496 q0 -154 -18.5 -240.5t-75.5 -168.5q-60 -88 -175 -142.5t-253 -54.5q-160 0 -288 66.5t-177 163.5q-84 154 -84 299v620q0 93 -2 109q-1 19 -2.5 28.5t-6 25t-15 23t-27.5 7.5zM588 561q0 -222 53 -305q103 -160 283 -160q352 0 352 463v447q-60 -88 -174.5 -141.5 t-251.5 -53.5q-143 0 -262 55v-305z" />
<glyph unicode="v" horiz-adv-x="1828" d="M0 1319v47h616l-251 569q-36 79 -62.5 120t-68.5 69t-93.5 35.5t-140.5 7.5v47h887v-47q-128 0 -187 -19q-55 -21 -55 -57q0 -19 18.5 -79.5t41.5 -113.5l301 -733l358 822q20 44 20 81q0 49 -38 66q-51 19 -187 33v47h670v-47q-56 -6 -90 -11t-70.5 -15t-56.5 -19 t-45.5 -30t-40 -40t-37 -58t-39.5 -75.5t-45 -99.5l-203 -453h627v-47q-56 -6 -90 -11t-70.5 -15t-56.5 -19t-45.5 -30t-40 -40t-37 -58t-39.5 -75.5t-45 -99.5l-451 -1004h-92l-497 1120q-36 79 -62.5 120t-68.5 69t-93.5 35.5t-140.5 7.5zM645 1243q0 -19 18.5 -79 t41.5 -113l301 -734l358 822q20 44 20 82q0 48 -38 65q-40 16 -166 31l-226 -502h-92l-205 459q-12 -12 -12 -31z" />
<glyph unicode="w" horiz-adv-x="2344" d="M0 1319v47h584l-219 537q-21 51 -32 76.5t-29 57t-27 43.5t-32.5 29t-38.5 21.5t-52 13t-66.5 11t-87.5 8.5v47h846v-47q-134 0 -187 -17q-47 -15 -47 -57q0 -10 19 -59l313 -791l303 733h72l76 -198l110 -289q71 -172 105 -246l39 94v33h14l180 440l60 170q16 50 16 80 q0 56 -43 74q-59 19 -227 33v47h696v-47q-58 0 -92 -1t-64.5 -7.5t-45.5 -13t-32 -25t-26.5 -36t-26.5 -52.5q-23 -44 -145 -320l-146 -342h578v-47q-58 0 -92 -1t-64.5 -7.5t-45.5 -13t-32 -25t-26.5 -36t-26.5 -52.5q-23 -44 -145 -320l-211 -493l-164 -404h-53l-305 750 l-312 -750h-59l-444 1092q-21 51 -32 76.5t-29 57t-27 43.5t-32.5 29t-38.5 21.5t-52 13t-66.5 11t-87.5 8.5zM612 1245q0 -10 19 -59l313 -791l303 733h72l76 -198l110 -289q71 -172 105 -246l233 568l60 170q16 50 16 79q0 56 -43 74q-43 15 -133 23l-41 -95l-164 -403 h-53l-305 750l-312 -750h-59l-188 463q-9 -12 -9 -29z" />
<glyph unicode="x" horiz-adv-x="1593" d="M0 1319v47h596l57 90l-336 529q-48 74 -85 108t-87 51t-145 25v47h739v-47q-96 0 -127 -8q-34 -9 -34 -31q0 -6 11 -31t19 -37l240 -370l182 282q43 63 60 99q25 42 23.5 58.5t-36.5 27.5q-45 10 -127 10v47h582v-47q-60 0 -99.5 -2.5t-76.5 -12.5t-61.5 -24t-53 -42 t-52.5 -60.5t-59 -85.5l-225 -338l156 -238h471v-47q-146 0 -212 -27.5t-134 -120.5l94 -143q35 -55 101.5 -83t209.5 -48v-47h-622l-64 -96l375 -576q35 -55 101.5 -83t209.5 -48v-47h-766v47q92 9 119 19q25 6 25 24q0 34 -107 199l-149 231l-236 -370q-22 -36 -22 -52 q0 -21 30 -30q44 -13 136 -21v-47h-541v47q57 0 89 1t64 8t47 14t36.5 28.5t35.5 42t41 62.5l260 403l-155 244h-418v47q66 0 101 2.5t66 8.5t51.5 23.5t38 39t44.5 63.5l-64 101q-48 74 -85 108t-87 51t-145 25zM610 1208l215 -331v20l64 6l59 92q-25 49 -86 144l-123 190 v-10h-59zM711 1366h4l-2 4zM842 850l6 -8l6 8h-12zM1106 1294l6 -10q0 7 -6 10z" />
<glyph unicode="y" horiz-adv-x="1527" d="M2 1319v47h647q0 44 -14 76q-15 29 -82 149l-221 373q-9 15 -25 43t-22.5 38.5t-19.5 31t-21 27.5t-22.5 20.5t-28 17.5t-33 11.5t-42.5 9.5t-51.5 4t-64.5 2v47h762v-47q-92 0 -133 -15t-41 -40t43 -101l252 -432l162 305l69 146q29 69 29 86q0 27 -45 39 q-46 12 -152 12v47h580v-47q-124 0 -160 -8q-41 -9 -63 -37l-62 -94l-82 -142l-160 -284q-45 -83 -55 -119.5t-10 -120.5v-215q0 -122 2 -145q1 -22 2 -33.5t5 -27.5t12.5 -24t21.5 -10l68 127l69 146q29 69 29 86q0 27 -45 39q-46 12 -152 12v47h580v-47q-124 0 -160 -8 q-41 -9 -63 -37l-62 -94l-82 -142l-76 -135l72 -6v-47h-102l-54 -96q-45 -83 -55 -119.5t-10 -120.5v-215q0 -122 2 -145q1 -24 2.5 -36.5t6 -28.5t15 -23t27.5 -7l168 -12v-47h-762v47l199 12q36 0 45 33q10 33 10 207v215q0 46 -14 78q-15 29 -82 149l-64 109h-94v47l64 4 l-127 213q-9 15 -25 43t-22.5 38.5t-19.5 31t-21 27.5t-22.5 20.5t-28 17.5t-33 11.5t-42.5 9.5t-51.5 4t-64.5 2zM590 1264q0 -25 43 -101l16 -28v14v162l-18 -6q-41 -15 -41 -41zM815 850l70 -119l63 119h-133z" />
<glyph unicode="z" horiz-adv-x="1482" d="M18 0l13 70q44 32 63.5 50t59.5 66l553 664h-689l13 70q44 32 63.5 50t59.5 66l219 264l47 103h39l600 721h-240q-131 0 -196 -13t-119 -50t-137 -128l-70 -71h-53l30 67l88 197l58 127h53q6 -40 39 -43q40 -4 369 -4q161 0 333 8t211 8l35 -70q-64 -40 -149 -143 l-551 -653h121q161 0 333 8t211 8l35 -69q-62 -39 -149 -144l-62 -74l-110 -327h-60v30q0 28 -6.5 41t-25.5 17l-633 -750l192 -4q86 0 138 1t107.5 6.5t86.5 11.5t69.5 22.5t60 33t55 50t59 65.5t67.5 87l37 -23l-147 -438h-60v31q0 37 -15.5 49t-62.5 12h-983zM414 946 l192 -4q129 0 180 2l273 330h-240q-94 0 -133 -4z" />
<glyph unicode="{" d="M213 502v41q89 0 133 30.5t53 98.5q-4 54 -2 86v174v18v21q0 77 4 110v95q0 98 -42.5 139t-145.5 41v41q102 0 145 40.5t43 133.5l-4 104v150q0 178 23 268q45 158 221 158l143 4l37 2v-51q-109 0 -157.5 -22.5t-73.5 -82.5q-27 -61 -27 -172v-301q0 -58 -3 -77t-21 -83 q-18 -61 -150 -88q50 -14 90 -39q59 56 162 56l143 4l37 2v-51q-109 0 -157.5 -22.5t-73.5 -82.5q-27 -61 -27 -172v-166v-8v-78q0 -128 8 -172q17 -113 113 -147q52 -19 137 -19v-49q-157 0 -199.5 4.5t-125.5 32.5q28 -23 43.5 -57t18 -53.5t3.5 -53.5q2 -31 2 -262v-78 q0 -128 8 -172q17 -113 113 -147q52 -19 137 -19v-49q-159 0 -202 5t-132 36q-93 35 -90 281v174l4 244q0 98 -42.5 139t-145.5 41zM389 526q33 -9 60 -22q-18 30 -19 33z" />
<glyph unicode="|" d="M438 -342v2558h148v-2558h-148z" />
<glyph unicode="}" d="M203 -369q117 0 173.5 33t69.5 96q11 62 13 83.5t2 76.5v350q0 134 59 193q-30 -7 -48.5 -10.5t-37.5 -7t-26 -5t-24.5 -2.5t-22 -1t-28.5 -0.5t-36 -0.5h-94v49q117 0 173.5 33t69.5 96q11 62 13 83.5t2 76.5v338q0 135 -56 187.5t-202 52.5v51l123 -4q94 0 142.5 -12.5 t78.5 -45.5q46 26 88 33q-37 10 -66 25.5t-47 29t-31 36.5t-18.5 36t-8.5 40t-3 35.5v35.5v354q0 135 -56 187.5t-202 52.5v51l123 -4q106 0 155.5 -16.5t83.5 -63.5q34 -48 48 -125t14 -223l-4 -248q0 -99 41.5 -139.5t146.5 -40.5v-41q-102 0 -145 -40.5t-41 -133.5v-90 q2 -35 2 -121v-33l2 -180q0 -32 -4 -86q11 -69 53.5 -99t132.5 -30v-41q-102 0 -145 -40.5t-43 -133.5l6 -424q0 -272 -103 -293q-32 -7 -50.5 -11t-39 -7.5t-27 -5t-25 -3t-22 -1.5t-29.5 -0.5t-36 -0.5h-94v49zM582 504q31 12 53 16q-21 6 -39 12z" />
<glyph unicode="&#xa1;" horiz-adv-x="671" d="M156 117q0 89 19.5 218.5t39.5 211.5q30 129 47 194q68 285 68 412v39l37 6q32 -106 32 -283l-8 -292q32 -7 52 -34.5t20 -62.5q0 -38 -24 -66t-60 -34l-4 -78v-22q19 -85 22 -187h6q7 0 27 4q4 1 10.5 3.5t20 7t24.5 8.5l19 -33q-53 -32 -105 -49v-10l-10 -336l-14 -232 l-6 -135q0 -44 8 -57q7 -17 26 -17q2 0 27 5q10 3 55 18l19 -33q-137 -82 -311 -82h-31l-6 70q0 89 19.5 218.5t39.5 211.5q32 138 47 195q15 61 35 159q-44 -8 -104 -8h-31zM260 1372q0 43 29 72t73 29q43 0 72 -29t29 -72q0 -42 -29.5 -72t-71.5 -30q-43 0 -72.5 29.5 t-29.5 72.5z" />
<glyph unicode="&#xa2;" horiz-adv-x="753" d="M59 272q0 145 108.5 248t270.5 103v219q-173 0 -276 77.5t-103 206.5q0 145 108.5 248t270.5 103v143h60v-145q97 -10 154 -45t57 -82q0 -24 -15 -40t-41 -16q-19 0 -35 13q-21 17 -51 57q-37 46 -69 57v-516l26 -2q67 0 197 62l12 -43q-116 -59 -235 -74v-225 q97 -10 154 -45t57 -82q0 -24 -15 -40t-41 -16q-19 0 -35 13q-21 17 -51 57q-37 46 -69 57v-516l26 -2q67 0 197 62l12 -43q-116 -59 -235 -74v-148h-60v144q-173 0 -276 77.5t-103 206.5zM281 365q0 -100 41 -178t116 -119v505q-75 0 -116 -54.5t-41 -153.5zM281 1219 q0 -100 41 -178t116 -119v505q-75 0 -116 -54.5t-41 -153.5z" />
<glyph unicode="&#xa3;" horiz-adv-x="1218" d="M23 0v43l200 27q38 0 47 18q6 18 6 152l21 264h-240v71h240l20 263l2 12h-296v43l200 27q38 0 47 18q6 18 6 152l21 264h-240v71h240l20 263q25 217 62.5 314t122.5 159q85 61 229 61q117 0 254 -39l33 -6q18 0 37 29h43q24 -132 29.5 -182.5t5.5 -151.5h-52 q-38 150 -97 210t-167 60q-33 0 -61 -8.5t-49 -20.5t-39 -34t-30 -40.5t-22.5 -48t-16.5 -48t-11 -50.5t-7 -45.5t-5 -41.5t-3 -31q-8 -57 -8 -195l-4 -102v-27l-2 -25h346v-71h-8q40 -8 88 -21l33 -6q18 0 37 29h43q22 -122 30 -187l5 11h49l-64 -400h-63l6 45q0 18 -10 21 q-12 4 -54 4h-430q-2 -35 -2 -121l-4 -102v-27l-2 -25h346v-71h-346v-428l166 -4q225 0 272 41q42 38 68.5 81.5t67.5 135.5h49l-64 -400h-63l6 45q0 18 -10 21q-12 4 -54 4h-974zM559 1341l33 13h-33v-13zM573 926l152 -4q225 0 272 41q41 36 76 92q-38 131 -95.5 184 t-160.5 53q-43 0 -78 -14.5t-58.5 -35t-42.5 -55t-29 -61t-18 -68t-10.5 -60.5t-5.5 -53q-1 -13 -2 -19z" />
<glyph unicode="&#xa5;" horiz-adv-x="1527" d="M0 1319v47h344l8 10h293q-2 18 -7 37.5t-9.5 33t-16.5 36t-17 32t-22 38t-22 38.5l-221 373q-9 15 -25 43t-22.5 38.5t-19.5 31t-21 27.5t-22.5 20.5t-28 17.5t-33 11.5t-42.5 9.5t-51.5 4t-64.5 2v47h764v-47q-92 0 -133 -15t-41 -40q0 -28 43 -101l250 -434l164 307 l69 146q29 69 29 86q0 27 -45 39q-46 12 -150 12v47h578v-47q-124 0 -160 -8q-41 -9 -63 -37l-62 -94l-16 -31l-66 -111l-160 -286q-46 -83 -55.5 -115t-9.5 -101v-10h354l-8 -10h246v-47q-124 0 -160 -8q-41 -9 -63 -37l-62 -94l-16 -31l-66 -111l-76 -135l72 -6v-47h-100 l-56 -98q-46 -83 -55.5 -114.5t-9.5 -100.5v-11h354l-61 -84h-293v-143q0 -122 2 -145q1 -24 2.5 -36.5t6 -28.5t15 -23t27.5 -7l168 -12v-47h-764v47l201 12q16 0 22 1.5t11 8t10 23.5q10 41 10 207v143h-356l61 84h293q-2 18 -7 37.5t-9.5 33t-16.5 36t-17 32t-22 38 t-22 38.5l-64 109h-94v47l64 4l-127 213q-9 15 -25 43t-22.5 38.5t-19.5 31t-21 27.5t-22.5 20.5t-28 17.5t-33 11.5t-42.5 9.5t-51.5 4t-64.5 2zM590 1264q0 -28 43 -101l14 -24v10v143h-41q-16 -13 -16 -28zM813 850l70 -121l63 121h-133zM936 1149q0 -122 2 -145 q1 -22 2 -33.5t5 -27.5t12.5 -24t21.5 -10l68 127l69 146q29 69 29 86q0 15 -12 24h-197v-143z" />
<glyph unicode="&#xa7;" horiz-adv-x="1064" d="M184 481q0 58 35 111l8 12q-34 37 -34 78q0 23 34 43t72 20q17 0 33 -16l37 39q-90 66 -130 133.5t-40 153.5q0 79 39 149q-54 63 -54 137q0 58 35 111q39 59 150 176q-90 66 -130 133.5t-40 153.5q0 140 110 244t258 104q91 0 177.5 -56.5t86.5 -117.5q0 -21 -36 -43.5 t-72 -22.5q-19 0 -29 13q-14 10 -41 57q-63 98 -131 98q-73 0 -125.5 -51.5t-52.5 -124.5t51 -127q50 -56 201 -145q151 -92 199.5 -147.5t48.5 -135.5q0 -75 -51 -151q38 -38 38 -80q0 -21 -36 -43.5t-72 -22.5q-19 0 -29 13l-10 10l-27 -27q132 -98 177 -155t45 -130 q0 -95 -56 -180q21 -44 21 -94q0 -68 -41.5 -134.5t-145.5 -166.5q132 -98 177 -155t45 -130q0 -147 -121 -259.5t-277 -112.5q-105 0 -196.5 57t-91.5 123q0 23 34 43t72 20q35 0 76 -86q37 -88 133 -88q81 0 145 60t64 135q0 99 -109 176q-49 34 -170 108 q-141 87 -197.5 150.5t-56.5 140.5zM324 1425q0 -31 20 -51q4 -5 29 -26q90 55 194 55q59 0 125 -29q-12 61 -131 137l-135 82q-102 -102 -102 -168zM330 535q1 -2 3.5 -6.5t5 -8t5.5 -6.5q24 -28 84 -68l29 -18l37 -22l106 -70q52 64 72 100t20 68q0 25 -18 49 q-88 -51 -193 -51q-73 0 -151 33zM350 1108q12 -44 45 -80q50 -56 201 -145q69 -43 117 -76q-19 76 -105 135q-60 42 -170 109q-28 17 -88 57zM371 670l4 -11q37 -88 133 -88q62 0 115 37q-26 23 -62 43l-135 82q-36 -36 -55 -63zM430 1305l27 -17l37 -22l106 -70l41 53 q-56 82 -119 82q-48 0 -92 -26z" />
<glyph unicode="&#xa9;" horiz-adv-x="1646" d="M113 684q0 240 141 426q-141 183 -141 426q0 193 94.5 356.5t257.5 258t356 94.5q145 0 276.5 -56t226.5 -151t151.5 -226.5t56.5 -275.5q0 -235 -141 -426q141 -191 141 -426q0 -145 -56.5 -276.5t-151.5 -226.5t-226.5 -151.5t-276.5 -56.5t-276 56t-225.5 151 t-150.5 226.5t-56 277.5zM184 684q0 -130 50.5 -248t136 -204t203.5 -136.5t247 -50.5q174 0 321 85.5t232.5 232.5t85.5 321q0 205 -117 369q-92 -100 -219 -160v-62h-34q-5 18 -15 41q-121 -47 -254 -47q-86 0 -180 23q-25 -73 -25 -164q0 -159 63.5 -244.5t184.5 -85.5 q153 0 273 176v-81q-120 -150 -297 -150q-172 0 -280.5 103t-108.5 268q0 126 61 225q-124 60 -211 158q-117 -164 -117 -369zM184 1536q0 -205 117 -369q98 101 205 152q-55 90 -55 203q0 172 108.5 284.5t278.5 112.5q78 0 151 -33q40 -16 58 -16q24 0 36 39l7 12l34 2 v-240h-34q-25 87 -86.5 136t-147.5 49q-109 0 -174.5 -90t-65.5 -242q0 -96 25 -166q94 23 180 23q146 0 281 -58q7 8 20 26.5t15 20.5v-63q116 -58 206 -154q117 164 117 371q0 173 -85.5 320t-232.5 232t-321 85q-130 0 -248 -50.5t-203 -135.5t-135.5 -203t-50.5 -248z M348 1110q86 -100 211 -156q110 113 279 113q78 0 151 -33q40 -16 58 -16q24 0 36 39l7 12l34 2v-98q98 52 174 137q-86 95 -198 147q-109 -106 -260 -106q-178 0 -289 111q-120 -57 -203 -152zM672 1303q63 -97 192 -97q100 0 183 74q-106 41 -226 41q-79 0 -149 -18z M674 913q75 -16 147 -16q114 0 215 37q-67 82 -180 82q-118 0 -182 -103z" />
<glyph unicode="&#xab;" horiz-adv-x="759" d="M72 313q0 -188 323 -290l15 36q-164 104 -164 254q0 155 164 281l-23 35q-315 -140 -315 -316zM72 1165q0 -189 323 -291l15 37q-164 104 -164 254q0 155 164 281l-23 35q-315 -140 -315 -316zM385 330q0 -163 281 -287l16 39q-77 84 -105 140t-28 126q0 60 28.5 105.5 t110.5 119.5l-22 33q-281 -115 -281 -276zM385 1182q0 -163 281 -287l16 39q-77 84 -105 140t-28 126q0 60 28.5 105.5t110.5 119.5l-22 33q-281 -115 -281 -276z" />
<glyph unicode="&#xad;" horiz-adv-x="518" d="M0 217l41 -27l45 70h346l86 172l-33 27l-53 -68h-346zM39 1067l41 -27l45 70h346l86 172l-33 27l-53 -68h-346z" />
<glyph unicode="&#xae;" horiz-adv-x="1646" d="M113 684q0 236 139 424q-139 185 -139 424q0 193 94.5 356.5t257.5 258t356 94.5q145 0 276.5 -56t226.5 -151t151.5 -226.5t56.5 -275.5q0 -241 -141 -424q141 -186 141 -424q0 -145 -56.5 -276.5t-151.5 -226.5t-226.5 -151.5t-276.5 -56.5t-276 56t-225.5 151 t-150.5 226.5t-56 277.5zM184 684q0 -130 50.5 -248t136 -204t203.5 -136.5t247 -50.5q174 0 321 85.5t232.5 232.5t85.5 321q0 203 -117 367q-90 -100 -215 -160q5 -30 5 -39q0 -69 -31.5 -110t-112.5 -76l158 -269q26 -51 92 -51v-37h-186l-203 355h-129v-240 q0 -47 13 -62.5t54 -15.5h35v-37h-344v37h31q41 0 54.5 15.5t13.5 62.5v440q-163 60 -279 185q-115 -163 -115 -365zM184 1532q0 -201 115 -367q116 125 279 185v438q0 49 -13.5 64.5t-54.5 15.5h-35v37h352q306 0 306 -205q0 -70 -31.5 -111t-112.5 -76l103 -174 q142 -58 251 -176q117 164 117 369q0 173 -85.5 320t-232.5 232t-321 85q-130 0 -248 -50.5t-203 -135.5t-135.5 -203t-50.5 -248zM346 1108q97 -110 232 -166q0 47 -13.5 62.5t-54.5 15.5h-35v37h352q213 0 277 -99q108 53 196 150q-41 41 -61 59v-10h-186l-84 148 q-75 16 -148 16q-56 0 -100 -8v-41q0 -47 13 -62.5t54 -15.5h35v-37h-344v37h31q41 0 54.5 15.5t13.5 62.5q-138 -57 -232 -164zM721 700h100q84 0 122.5 33t41.5 107q-84 -19 -164 -19q-51 0 -100 6v-127zM721 901q44 -8 100 -8q83 0 156 18q-26 97 -156 97h-100v-107z M721 1386q58 7 100 7q43 0 101 -7l-72 125h-129v-125zM721 1548h100q87 0 125.5 36t38.5 116q0 155 -164 155h-100v-307zM1163 1223q16 -16 31 -21z" />
<glyph unicode="&#xb0;" horiz-adv-x="866" d="M242 1108q0 -75 55.5 -128.5t130.5 -53.5q82 0 138.5 52t56.5 130q0 79 -59.5 137t-141.5 58q-75 0 -127.5 -56.5t-52.5 -138.5zM242 1958q0 -75 55.5 -128.5t130.5 -53.5q82 0 138.5 52t56.5 130q0 79 -59.5 136.5t-141.5 57.5q-75 0 -127.5 -56t-52.5 -138zM299 1122 q0 49 36.5 86t84.5 37q62 0 103.5 -38t41.5 -95q0 -55 -39 -93t-94 -38q-57 0 -95 40t-38 101zM299 1972q0 49 36.5 86t84.5 37q62 0 103.5 -38t41.5 -95q0 -55 -39 -93t-94 -38q-57 0 -95 40t-38 101z" />
<glyph unicode="&#xb6;" horiz-adv-x="1183" d="M96 1038q0 99 50 181t116 110q62 24 96.5 30.5t98.5 6.5h86v197h-92q-166 0 -260.5 86t-94.5 239q0 99 50 181t116 110q62 24 96.5 30.5t98.5 6.5h639v-53h-37q-32 0 -49.5 -1t-33.5 -7t-22 -14t-11 -28t-6 -42t-1 -62v-643h160v-53h-37q-32 0 -49.5 -1t-33.5 -7t-22 -14 t-11 -28t-6 -42t-1 -62v-317v-52.5t4.5 -33t8 -22.5t19 -9.5t28 -5.5h44.5h41v-53h-145v-672v-53.5t4.5 -34t8 -22.5t19 -9.5t28 -5.5h44.5h41v-53h-254v1493h-176v-1493h-280v53h45h53t34 5.5t23 11t10.5 23.5t6 36t0.5 55v666h-172v53q-130 20 -202.5 103t-72.5 216z M258 1036q0 -122 55 -191t152 -69h76q2 18 2 74v463h-64q-116 0 -168.5 -65.5t-52.5 -211.5zM258 1886q0 -122 55 -191t152 -69h78v537h-64q-116 0 -168.5 -65.5t-52.5 -211.5zM651 1366h176v793h-176v-793z" />
<glyph unicode="&#xb7;" horiz-adv-x="1064" d="M430 326q0 -43 29.5 -73t72.5 -30q41 0 71 30t30 73t-29 71.5t-72 28.5q-44 0 -73 -28.5t-29 -71.5zM430 1176q0 -43 29.5 -73t72.5 -30q41 0 71 30t30 73t-29 71.5t-72 28.5q-44 0 -73 -28.5t-29 -71.5z" />
<glyph unicode="&#xbb;" horiz-adv-x="759" d="M72 78l22 -33q281 115 281 274q0 166 -281 287l-16 -37q76 -86 104.5 -143t28.5 -125q0 -60 -28.5 -105.5t-110.5 -117.5zM72 930l22 -33q281 115 281 274q0 166 -281 287l-16 -37q76 -86 104.5 -143t28.5 -125q0 -60 -28.5 -105.5t-110.5 -117.5zM350 57l23 -34 q315 143 315 315q0 186 -323 291l-15 -37q164 -104 164 -254q0 -155 -164 -281zM350 909l23 -35q315 143 315 316q0 186 -323 291l-15 -37q164 -104 164 -254q0 -155 -164 -281z" />
<glyph unicode="&#xbc;" horiz-adv-x="2220" d="M193 1233q94 41 132 60.5t134 74.5l116 10l27 -37q0 -98 -8 -215t-8 -153q0 -189 8 -277q9 -99 16 -106q8 -8 37 -8h80v-37h-522v37l149 10q37 3 41 14l4 47q0 133 9 332q0 214 -7 242q-10 25 -12 26l-8 4l-29 -10q-72 -29 -147 -43zM193 2083q94 41 132 60.5t134 74.5 l116 10l27 -37q0 -98 -8 -215t-8 -153q0 -189 8 -277q9 -99 16 -106q8 -8 37 -8h80v-37h-522v37l149 10q37 3 41 14l4 47q0 132 9 332q0 214 -7 242q-10 25 -12 26l-8 4l-29 -10q-72 -29 -147 -43zM672 0l467 1151l-11 31l41 49l56 135h57l416 496l71 -66l-471 -543l-2 -6 h301v213l154 148v-361h137l-55 -123h-82v-161l18 -17l-18 -20v-76l-106 -47l-353 -406h305v213l154 148v-361h137l-55 -123h-82v-274l-154 -68v342h-450l-19 58l469 559v233h-352l-454 -1124h-119zM672 850l553 1366h118l-552 -1366h-119z" />
<glyph unicode="&#xbd;" horiz-adv-x="2220" d="M193 1233q94 41 132 60.5t134 74.5l116 10l27 -37q0 -98 -8 -215t-8 -153q0 -189 8 -277q9 -99 16 -106q8 -8 37 -8h80v-37h-522v37l149 10q37 3 41 14l4 47q0 133 9 332q0 214 -7 242q-10 25 -12 26l-8 4l-29 -10q-72 -29 -147 -43zM193 2083q94 41 132 60.5t134 74.5 l116 10l27 -37q0 -98 -8 -215t-8 -153q0 -189 8 -277q9 -99 16 -106q8 -8 37 -8h80v-37h-522v37l149 10q37 3 41 14l4 47q0 132 9 332q0 214 -7 242q-10 25 -12 26l-8 4l-29 -10q-72 -29 -147 -43zM672 0l553 1366h37q-7 14 -7 31q0 108 100.5 175.5t260.5 67.5 q129 0 210 -62.5t81 -160.5q0 -39 -12.5 -76.5t-38 -71t-46 -57t-56 -51.5t-46.5 -36t-39 -27q-78 -54 -180 -117h377q8 7 23.5 19t20.5 16t16 13t17.5 14t19 13.5t25.5 17t31 20.5l9 -7q-73 -87 -112 -141t-85 -137h-45v8q0 22 -9.5 27.5t-35.5 5.5h-551l-12 39 q192 92 263.5 139t166.5 152q98 110 98 262q0 69 -41 108t-113 39q-78 0 -108.5 -35.5t-30.5 -128.5q0 -55 -15 -72.5t-67 -17.5l-540 -1335h-119zM672 850l553 1366h118l-552 -1366h-119zM1178 39q192 92 263.5 139t166.5 152q98 110 98 262q0 69 -41 108t-113 39 q-78 0 -108.5 -35.5t-30.5 -128.5q0 -56 -15.5 -73t-70.5 -17q-72 0 -72 62q0 109 100.5 176.5t260.5 67.5q129 0 210 -63t81 -161q0 -39 -12.5 -76.5t-38 -71t-46 -57t-56 -51.5t-46.5 -36t-39 -27q-78 -54 -180 -117h377q8 7 23.5 19t20.5 16t16 13t17.5 14t19 13.5 t25.5 17t31 20.5l9 -6q-73 -86 -111.5 -140.5t-85.5 -138.5h-45v8q0 22 -9.5 27.5t-35.5 5.5h-551z" />
<glyph unicode="&#xbf;" horiz-adv-x="825" d="M119 342q0 100 71 209q23 37 54 74q25 31 129 151q98 118 139 182q41 65 41 121q0 29 -2 39q-11 54 -14 68l32 22q62 -130 62 -209q0 -63 -38.5 -151.5t-123.5 -226.5q-88 -143 -113 -207q-28 -73 -28 -133q0 -79 40 -127t107 -48q11 0 41 5q37 58 37 112q0 29 -2 39 q-11 54 -14 68l32 22l4 -10q5 25 49.5 45.5t96.5 20.5q45 0 45 -74q0 -76 -36.5 -138t-100.5 -98q-19 -109 -158 -334q-89 -144 -113 -206q-28 -73 -28 -133q0 -79 40 -127t107 -48q61 0 96 27t35 72q0 25 -16 71q-17 46 -17 62q0 25 45.5 47t100.5 22q45 0 45 -73 q0 -118 -84 -197.5t-211 -79.5q-154 0 -252 80t-98 205q0 100 71 209q23 37 54 74q25 31 129 151q71 84 108 137h-12q-154 0 -252 80t-98 205zM459 526q0 43 29 72t73 29q43 0 72 -29t29 -72q0 -42 -30 -72t-71 -30q-43 0 -72.5 29.5t-29.5 72.5zM459 1382q0 43 29 72t73 29 q43 0 72 -29t29 -72q0 -42 -30 -72t-71 -30q-43 0 -72.5 29.5t-29.5 72.5z" />
<glyph unicode="&#xc0;" horiz-adv-x="1556" d="M12 0v47q59 0 95 2t69 11t51 21t36.5 37.5t31 54.5t29.5 79l202 598h-514v47q59 0 95 2t69 11t51 21t36.5 37.5t31 54.5t29.5 79l327 964l-47 140l80 39q43 -19 66 -19q14 0 34 4q23 6 66 23l37 14l399 -1190q36 -100 66 -123q31 -28 59 -34q22 -7 135 -23v-47h-469 l209 -623q36 -100 66 -123q31 -28 59 -34q22 -7 135 -23v-47h-755v47l69 4q85 0 119 17q31 16 31 61l-6 37l-103 311l-201 4l-204 -4l-88 -272q-21 -59 -21 -99q0 -32 23 -45t86 -14h94v-47h-578zM387 956q0 -32 23 -44.5t86 -12.5h47l108 318l-39 112l-116 -2l-88 -272 q-21 -59 -21 -99zM524 563l174 -4l172 4l-174 522zM524 1413l174 -4l172 4l-41 121q-124 65 -221 137zM584 2542l137 61q56 -78 111 -130.5t141 -109.5l-25 -34q-226 98 -364 213zM623 1708l98 45q11 -17 63 -82l-88 264z" />
<glyph unicode="&#xc1;" horiz-adv-x="1556" d="M12 0v47q59 0 95 2t69 11t51 21t36.5 37.5t31 54.5t29.5 79l202 598h-514v47q59 0 95 2t69 11t51 21t36.5 37.5t31 54.5t29.5 79l327 964l-47 140l80 39q43 -19 66 -19q14 0 34 4q23 6 66 23l37 14l399 -1190q36 -100 66 -123q31 -28 59 -34q22 -7 135 -23v-47h-469 l209 -623q36 -100 66 -123q31 -28 59 -34q22 -7 135 -23v-47h-755v47l69 4q85 0 119 17q31 16 31 61l-6 37l-103 311l-201 4l-204 -4l-88 -272q-21 -59 -21 -99q0 -32 23 -45t86 -14h94v-47h-578zM387 956q0 -32 23 -44.5t86 -12.5h47l108 318l-39 112l-116 -2l-88 -272 q-21 -59 -21 -99zM524 563l174 -4l172 4l-174 522zM524 1413l174 -4l172 4l-57 170q-87 -53 -205 -104l-24 34q126 80 196 168l-84 254zM584 2363q86 55 142 108.5t110 131.5l137 -61q-147 -120 -365 -213z" />
<glyph unicode="&#xc2;" horiz-adv-x="1556" d="M12 0v47q59 0 95 2t69 11t51 21t36.5 37.5t31 54.5t29.5 79l202 598h-514v47q59 0 95 2t69 11t51 21t36.5 37.5t31 54.5t29.5 79l327 964l-47 140l80 39q43 -19 66 -19q14 0 34 4q23 6 66 23l37 14l399 -1190q36 -100 66 -123q31 -28 59 -34q22 -7 135 -23v-47h-469 l209 -623q36 -100 66 -123q31 -28 59 -34q22 -7 135 -23v-47h-755v47l69 4q85 0 119 17q31 16 31 61l-6 37l-103 311l-201 4l-204 -4l-88 -272q-21 -59 -21 -99q0 -32 23 -45t86 -14h94v-47h-578zM387 956q0 -32 23 -44.5t86 -12.5h47l108 318l-39 112l-116 -2l-88 -272 q-21 -59 -21 -99zM524 563l174 -4l172 4l-174 522zM524 1413l174 -4l172 4l-43 129q-45 35 -63 66q-50 -50 -186 -144l-29 25zM545 2343q75 67 141 135q43 43 62 96h90q0 -53 37.5 -99.5t136.5 -119.5l-74 -41q-135 84 -174 144q-50 -50 -186 -144zM553 1501q74 66 133 127 q43 43 62 96h18l-70 211z" />
<glyph unicode="&#xc3;" horiz-adv-x="1556" d="M12 0v47q59 0 95 2t69 11t51 21t36.5 37.5t31 54.5t29.5 79l202 598h-514v47q59 0 95 2t69 11t51 21t36.5 37.5t31 54.5t29.5 79l327 964l-47 140l80 39q43 -19 66 -19q14 0 34 4q23 6 66 23l37 14l399 -1190q36 -100 66 -123q31 -28 59 -34q22 -7 135 -23v-47h-469 l209 -623q36 -100 66 -123q31 -28 59 -34q22 -7 135 -23v-47h-755v47l69 4q85 0 119 17q31 16 31 61l-6 37l-103 311l-201 4l-204 -4l-88 -272q-21 -59 -21 -99q0 -32 23 -45t86 -14h94v-47h-578zM387 956q0 -32 23 -44.5t86 -12.5h47l108 318l-39 112l-116 -2l-88 -272 q-21 -59 -21 -99zM524 563l174 -4l172 4l-174 522zM524 1413l174 -4l172 4l-36 109q-33 4 -115 24q-54 13 -76 13q-43 0 -70 -50l-14 13zM539 2388q65 115 149 115q17 0 70 -11q40 -11 88.5 -20.5t60.5 -9.5q39 0 74 53l39 -29q-67 -119 -141 -119q-46 0 -160 29 q-49 12 -76 12q-43 0 -70 -49zM588 1606q47 47 100 47q17 0 70 -11l39 -10l-101 303z" />
<glyph unicode="&#xc4;" horiz-adv-x="1556" d="M12 0v47q59 0 95 2t69 11t51 21t36.5 37.5t31 54.5t29.5 79l202 598h-514v47q59 0 95 2t69 11t51 21t36.5 37.5t31 54.5t29.5 79l327 964l-47 140l80 39q43 -19 66 -19q14 0 34 4q23 6 66 23l37 14l399 -1190q36 -100 66 -123q31 -28 59 -34q22 -7 135 -23v-47h-469 l209 -623q36 -100 66 -123q31 -28 59 -34q22 -7 135 -23v-47h-755v47l69 4q85 0 119 17q31 16 31 61l-6 37l-103 311l-201 4l-204 -4l-88 -272q-21 -59 -21 -99q0 -32 23 -45t86 -14h94v-47h-578zM387 956q0 -32 23 -44.5t86 -12.5h47l108 318l-39 112l-116 -2l-88 -272 q-21 -59 -21 -99zM522 2437q0 37 26.5 63.5t63.5 26.5t63.5 -26.5t26.5 -63.5t-26.5 -63.5t-63.5 -26.5t-63.5 26.5t-26.5 63.5zM524 563l174 -4l172 4l-174 522zM524 1413l174 -4l172 4l-30 94q-23 11 -37.5 32.5t-14.5 47.5q0 19 11 41l-103 307l-84 -258q37 0 63.5 -26.5 t26.5 -63.5t-26.5 -63.5t-63.5 -26.5q-30 0 -55 19zM788 2437q0 37 27 63.5t64 26.5t63.5 -26.5t26.5 -63.5t-26.5 -63.5t-63.5 -26.5t-64 26.5t-27 63.5z" />
<glyph unicode="&#xc5;" horiz-adv-x="1556" d="M12 0v47q59 0 95 2t69 11t51 21t36.5 37.5t31 54.5t29.5 79l202 598h-514v47q59 0 95 2t69 11t51 21t36.5 37.5t31 54.5t29.5 79l327 964l-47 140l80 39q43 -19 66 -19q14 0 34 4q23 6 66 23l37 14l399 -1190q36 -100 66 -123q31 -28 59 -34q22 -7 135 -23v-47h-469 l209 -623q36 -100 66 -123q31 -28 59 -34q22 -7 135 -23v-47h-755v47l69 4q85 0 119 17q31 16 31 61l-6 37l-103 311l-201 4l-204 -4l-88 -272q-21 -59 -21 -99q0 -32 23 -45t86 -14h94v-47h-578zM387 956q0 -32 23 -44.5t86 -12.5h47l108 318l-39 112l-116 -2l-88 -272 q-21 -59 -21 -99zM524 563l174 -4l172 4l-174 522zM524 1413l174 -4l172 4l-28 88q-42 -22 -90 -22q-61 0 -107 35.5t-57 89.5zM584 2482q0 66 49 111t121 45q68 0 117 -45.5t49 -110.5q0 -66 -48 -109.5t-120 -43.5q-69 0 -118.5 45t-49.5 108zM633 1743q45 42 112 45 l-49 147zM666 1634q0 -54 25 -87.5t63 -33.5q44 0 67 48l-63 192h-6q-37 0 -61.5 -33t-24.5 -86zM666 2484q0 -54 25 -87.5t63 -33.5q35 0 59.5 34.5t24.5 84.5q0 51 -24.5 86t-61.5 35t-61.5 -33t-24.5 -86z" />
<glyph unicode="&#xc6;" horiz-adv-x="2185" d="M0 0v47q71 0 113.5 4.5t78.5 14.5t65.5 36t56 58t67.5 92l704 1042q-15 15 -49 15l-145 10v12h-27q-13 0 -235 -6l-178 -270q-60 -91 -60 -123t94 -35h93v-47h-578v47q71 0 113.5 4.5t78.5 14.5t65.5 36t56 58t67.5 92l704 1042q-15 15 -49 15l-145 10v47h926 q56 0 66 2.5t46 24.5l29 16l39 -27q-56 -145 -101 -303h-47q-5 39 -7.5 56t-8.5 44t-10.5 37t-16 26.5t-21.5 21t-31 13.5t-41 10t-55 4t-69 3h-86h-110q-17 -163 -17 -223v-328l27 -2h164h12q59 0 71 8.5t21 57.5q1 2 1 5q2 8 3 13l29 121h47v-430h66q56 0 66 2.5t46 24.5 l29 16l39 -27q-56 -145 -101 -303h-47q-5 39 -7.5 56t-8.5 44t-10.5 37t-16 26.5t-21.5 21t-31 13.5t-41 10t-55 4t-69 3h-86h-110q-15 -155 -17 -192q2 -26 6 -80q2 -13 6 -44.5t5 -45.5q96 -12 186 -12q47 0 121 4l4 22h47v-14q105 19 192 71t201 162l41 -26 q-61 -106 -93.5 -171t-88.5 -192h-53q-11 51 -19 60q-13 13 -71 14h-43h-66v-387h-47l-33 123l-14 55q-3 22 -33 25q-55 8 -188 8h-60v-381q0 -69 6 -121q2 -13 6 -44.5t5 -45.5q96 -12 186 -12q187 0 300 49t265 196l41 -26q-61 -106 -93.5 -171t-88.5 -192h-53 q-11 51 -19 60q-13 13 -71 14h-43h-947v47l166 12q16 0 22 1.5t11 8t10 23.5q11 45 11 207v176l-226 6q-13 0 -235 -6l-178 -270q-60 -91 -60 -123t94 -35h93v-47h-578zM688 563l199 -4l203 4v287h-211zM688 1413l199 -4l203 4v604zM911 901l125 8q16 0 22 1.5t11 8t10 23.5 q11 45 11 207v18zM1376 743l27 -2h164h12q59 0 71 8.5t21 57.5q1 2 1 5q2 8 3 13l6 25h-305v-107zM1376 1366h314l-19 70l-14 55q-3 22 -33 25q-55 8 -188 8h-60v-158z" />
<glyph unicode="&#xc7;" horiz-adv-x="1466" d="M96 682q0 240 127 418q-127 181 -127 432q0 210 97 373.5t273.5 254.5t403.5 91q94 0 177 -17q75 -15 94 -18l28 -4q41 0 58 39l51 6q52 -214 84 -459h-47q-55 115 -96 180.5t-92.5 113.5t-111.5 65.5t-147 17.5q-215 0 -333.5 -144.5t-118.5 -408.5q0 -182 49 -313 q179 92 405 92q94 0 177 -17q75 -15 94 -18l28 -4q41 0 58 39l51 6q41 -172 57 -272l60 -35q-20 -32 -45 -64l12 -88h-47l-17 33q-171 -168 -471 -168q-226 0 -401 102q-10 -75 -10 -143q0 -325 166 -506q164 -182 372 -182q238 0 371 207l70 -41q-180 -287 -568 -287 q-215 0 -381 90t-258 253.5t-92 375.5zM532 1178q20 -29 50 -62q164 -182 372 -182q183 0 306 123q-81 153 -163.5 210.5t-228.5 57.5q-217 0 -336 -147zM580 -180q102 108 174 108q41 0 67.5 -29t26.5 -73q0 -48 -27 -100q-25 -49 -116 -166l-29 -39l-37 30q84 137 84 203 q0 30 -14.5 52t-34.5 22q-11 0 -19 -4q-6 -4 -37 -35zM580 670q102 108 174 108q41 0 67.5 -29t26.5 -73q0 -48 -27 -101q-24 -46 -116 -165l-29 -39l-37 30q84 137 84 203q0 30 -14.5 52t-34.5 22q-11 0 -19 -4q-6 -4 -37 -35z" />
<glyph unicode="&#xc8;" horiz-adv-x="1423" d="M109 0v47l165 12q16 0 22 1.5t11 8t10 23.5q11 45 11 207v551h-219v47l165 12q16 0 22 1.5t11 8t10 23.5q11 43 11 197q0 70 -2 84q-1 23 -3.5 36.5t-14.5 29t-34 18.5l-137 12v47h191v598q0 93 -2 109q-1 23 -3.5 36.5t-14.5 29t-34 18.5l-137 12v47h918q56 0 66 2.5 t46 24.5l29 16l39 -27q-52 -135 -100 -303h-48q-5 39 -7.5 56t-8.5 44t-10.5 37t-16 26.5t-21.5 21t-31 13.5t-41 10t-55 4t-69 3h-86h-110q-17 -163 -17 -223v-186l41 18q63 -91 146 -162h4h12q59 0 71 8.5t21 57.5q1 2 1 5q2 8 3 13l29 121h47v-430h66q56 0 66 2.5 t46 24.5l29 16l39 -27q-52 -135 -100 -303h-48q-5 39 -7.5 56t-8.5 44t-10.5 37t-16 26.5t-21.5 21t-31 13.5t-41 10t-55 4t-69 3h-86h-110q-15 -155 -17 -192q1 -18 3.5 -45t3.5 -35q9 -82 10 -90q96 -12 186 -12q47 0 121 4l4 22h47v-14q105 19 192 71t201 162l41 -26 q-61 -106 -93.5 -171t-88.5 -192h-53q-11 51 -19 60q-13 13 -71 14h-43h-66v-387h-47l-33 123l-14 55q-3 22 -33 25q-55 8 -188 8h-60v-381q0 -60 7 -121q9 -82 10 -90q96 -12 186 -12q187 0 300 49t265 196l41 -26q-61 -106 -93.5 -171t-88.5 -192h-53q-11 51 -19 60 q-13 13 -71 14h-43h-946zM518 2542l137 61q56 -78 111 -130.5t141 -109.5l-24 -34q-229 99 -365 213zM614 743l27 -2h164h12q59 0 71 8.5t21 57.5q1 2 1 5q2 8 3 13l7 25h-306v-107zM614 1366h314l-19 70l-14 55v4l-12 -16q-15 7 -46 21.5t-46 21.5q-45 2 -117 2h-60v-158z M614 1593h27h16l-43 27v-27z" />
<glyph unicode="&#xc9;" horiz-adv-x="1423" d="M109 0v47l165 12q16 0 22 1.5t11 8t10 23.5q11 45 11 207v551h-219v47l165 12q16 0 22 1.5t11 8t10 23.5q11 43 11 197q0 70 -2 84q-1 23 -3.5 36.5t-14.5 29t-34 18.5l-137 12v47h191v598q0 93 -2 109q-1 23 -3.5 36.5t-14.5 29t-34 18.5l-137 12v47h918q56 0 66 2.5 t46 24.5l29 16l39 -27q-52 -135 -100 -303h-48q-5 39 -7.5 56t-8.5 44t-10.5 37t-16 26.5t-21.5 21t-31 13.5t-41 10t-55 4t-69 3h-86h-110q-17 -163 -17 -223v-328h15q76 64 141 160l137 -61q-63 -51 -143 -101h41h12q59 0 71 8.5t21 57.5q1 2 1 5q2 8 3 13l29 121h47v-430 h66q56 0 66 2.5t46 24.5l29 16l39 -27q-52 -135 -100 -303h-48q-5 39 -7.5 56t-8.5 44t-10.5 37t-16 26.5t-21.5 21t-31 13.5t-41 10t-55 4t-69 3h-86h-110q-15 -155 -17 -192q1 -18 3.5 -45t3.5 -35q9 -82 10 -90q96 -12 186 -12q47 0 121 4l4 22h47v-14q105 19 192 71 t201 162l41 -26q-61 -106 -93.5 -171t-88.5 -192h-53q-11 51 -19 60q-13 13 -71 14h-43h-66v-387h-47l-33 123l-14 55q-3 22 -33 25q-55 8 -188 8h-60v-381q0 -60 7 -121q9 -82 10 -90q96 -12 186 -12q187 0 300 49t265 196l41 -26q-61 -106 -93.5 -171t-88.5 -192h-53 q-11 51 -19 60q-13 13 -71 14h-43h-946zM518 2363q86 55 142 108.5t110 131.5l137 -61q-148 -121 -364 -213zM614 743l27 -2h164h12q59 0 71 8.5t21 57.5q1 2 1 5q2 8 3 13l7 25h-306v-107zM614 1366h314l-19 70l-14 55q-3 22 -33 25q-55 8 -188 8h-33l-27 -13v-145z" />
<glyph unicode="&#xca;" horiz-adv-x="1423" d="M109 0v47l165 12q16 0 22 1.5t11 8t10 23.5q11 45 11 207v551h-219v47l165 12q16 0 22 1.5t11 8t10 23.5q11 43 11 197q0 70 -2 84q-1 23 -3.5 36.5t-14.5 29t-34 18.5l-137 12v47h191v598q0 93 -2 109q-1 23 -3.5 36.5t-14.5 29t-34 18.5l-137 12v47h918q56 0 66 2.5 t46 24.5l29 16l39 -27q-52 -135 -100 -303h-48q-5 39 -7.5 56t-8.5 44t-10.5 37t-16 26.5t-21.5 21t-31 13.5t-41 10t-55 4t-69 3h-86h-110q-17 -163 -17 -223v-299l7 6q41 41 61 96h90q0 -68 68 -133q42 0 51 11.5t22 72.5l29 121h47v-430h66q56 0 66 2.5t46 24.5l29 16 l39 -27q-52 -135 -100 -303h-48q-5 39 -7.5 56t-8.5 44t-10.5 37t-16 26.5t-21.5 21t-31 13.5t-41 10t-55 4t-69 3h-86h-110q-15 -155 -17 -192q1 -18 3.5 -45t3.5 -35q9 -82 10 -90q96 -12 186 -12q47 0 121 4l4 22h47v-14q105 19 192 71t201 162l41 -26 q-61 -106 -93.5 -171t-88.5 -192h-53q-11 51 -19 60q-13 13 -71 14h-43h-66v-387h-47l-33 123l-14 55q-3 22 -33 25q-55 8 -188 8h-60v-381q0 -60 7 -121q9 -82 10 -90q96 -12 186 -12q187 0 300 49t265 196l41 -26q-61 -106 -93.5 -171t-88.5 -192h-53q-11 51 -19 60 q-13 13 -71 14h-43h-946zM479 2343q82 73 142 135q41 41 61 96h90q0 -53 37.5 -99.5t136.5 -119.5l-74 -41q-135 84 -174 144q-50 -50 -186 -144zM614 743l27 -2h164h12q59 0 71 8.5t21 57.5q1 2 1 5q2 8 3 13l7 25h-306v-107zM614 1366h314l-19 70l-10 43l-27 -15 q-33 21 -84 58q-45 2 -114 2h-60v-158zM682 1593l29 -2l-13 17q-13 -13 -16 -15z" />
<glyph unicode="&#xcb;" horiz-adv-x="1423" d="M109 0v47l165 12q16 0 22 1.5t11 8t10 23.5q11 45 11 207v551h-219v47l165 12q16 0 22 1.5t11 8t10 23.5q11 43 11 197q0 70 -2 84q-1 23 -3.5 36.5t-14.5 29t-34 18.5l-137 12v47h191v598q0 93 -2 109q-1 23 -3.5 36.5t-14.5 29t-34 18.5l-137 12v47h918q56 0 66 2.5 t46 24.5l29 16l39 -27q-52 -135 -100 -303h-48q-5 39 -7.5 56t-8.5 44t-10.5 37t-16 26.5t-21.5 21t-31 13.5t-41 10t-55 4t-69 3h-86h-110q-17 -163 -17 -223v-276q17 -20 21 -52l6 -2h150q1 35 28 60.5t62 25.5q17 0 32 -6v4l29 121h47v-430h66q56 0 66 2.5t46 24.5l29 16 l39 -27q-52 -135 -100 -303h-48q-5 39 -7.5 56t-8.5 44t-10.5 37t-16 26.5t-21.5 21t-31 13.5t-41 10t-55 4t-69 3h-86h-110q-15 -155 -17 -192q1 -18 3.5 -45t3.5 -35q9 -82 10 -90q96 -12 186 -12q47 0 121 4l4 22h47v-14q105 19 192 71t201 162l41 -26 q-61 -106 -93.5 -171t-88.5 -192h-53q-11 51 -19 60q-13 13 -71 14h-43h-66v-387h-47l-33 123l-14 55q-3 22 -33 25q-55 8 -188 8h-60v-381q0 -60 7 -121q9 -82 10 -90q96 -12 186 -12q187 0 300 49t265 196l41 -26q-61 -106 -93.5 -171t-88.5 -192h-53q-11 51 -19 60 q-13 13 -71 14h-43h-946zM455 2437q0 37 26.5 63.5t63.5 26.5t63.5 -26.5t26.5 -63.5t-26.5 -63.5t-63.5 -26.5t-63.5 26.5t-26.5 63.5zM614 743l27 -2h164h12q59 0 71 8.5t21 57.5q1 2 1 5q2 8 3 13l7 25h-306v-107zM614 1366h314l-19 70l-14 55l-2 6h-12q-34 0 -60 23 q-102 4 -147 4h-60v-158zM791 2437q0 37 26.5 63.5t63.5 26.5t63.5 -26.5t26.5 -63.5t-26.5 -63.5t-63.5 -26.5t-63.5 26.5t-26.5 63.5z" />
<glyph unicode="&#xcc;" horiz-adv-x="946" d="M47 1319v47h283v287q-27 18 -51 39l51 22v250q0 113 -11 158q-9 35 -43 35l-229 12v47h840v-47l-217 -12q-31 0 -41 -29q-13 -51 -13 -211v-369l52 -35l-25 -34l-27 12v-125h271v-47l-217 -12q-31 0 -41 -29q-13 -46 -13 -188q0 -70 2 -86q2 -45 12.5 -70t39.5 -25 l221 -12v-47h-275v-551q0 -122 2 -145q2 -45 12.5 -70t39.5 -25l221 -12v-47h-836v47l221 12q32 0 41 31q13 51 13 209v551h-275v47l221 12q32 0 41 31q13 51 13 209v27q0 53 -11 96q-9 35 -43 35zM279 2542l137 61q56 -78 111 -130.5t141 -109.5l-25 -34q-226 98 -364 213z " />
<glyph unicode="&#xcd;" horiz-adv-x="946" d="M47 1319v47h283v125l-27 -12l-24 34l51 35v416q0 113 -11 158q-9 35 -43 35l-229 12v47h840v-47l-217 -12q-31 0 -41 -29q-13 -51 -13 -211v-203l52 -22l-52 -39v-287h271v-47l-217 -12q-31 0 -41 -29q-13 -46 -13 -188q0 -70 2 -86q2 -45 12.5 -70t39.5 -25l221 -12v-47 h-275v-551q0 -122 2 -145q2 -45 12.5 -70t39.5 -25l221 -12v-47h-836v47l221 12q32 0 41 31q13 51 13 209v551h-275v47l221 12q32 0 41 31q13 51 13 209v27q0 53 -11 96q-9 35 -43 35zM279 2363q86 55 141.5 108.5t109.5 131.5l138 -61q-147 -120 -365 -213z" />
<glyph unicode="&#xce;" horiz-adv-x="946" d="M47 1319v47h283v137l-58 -39l-32 29q12 10 90 84v387q0 113 -11 158q-9 35 -43 35l-229 12v47h840v-47l-217 -12q-31 0 -41 -29q-13 -51 -13 -211v-340q80 -64 91 -72l-74 -41l-17 11v-109h271v-47l-217 -12q-31 0 -41 -29q-13 -46 -13 -188q0 -70 2 -86q2 -45 12.5 -70 t39.5 -25l221 -12v-47h-275v-551q0 -122 2 -145q2 -45 12.5 -70t39.5 -25l221 -12v-47h-836v47l221 12q32 0 41 31q13 51 13 209v551h-275v47l221 12q32 0 41 31q13 51 13 209v27q0 53 -11 96q-9 35 -43 35zM240 2343q75 67 141 135q41 41 61 96h90q0 -53 37.5 -99.5 t137.5 -119.5l-74 -41q-135 84 -174 144q-47 -47 -187 -144z" />
<glyph unicode="&#xcf;" horiz-adv-x="946" d="M47 1319v47h283v135q-16 -4 -25 -4q-37 0 -63.5 26.5t-26.5 63.5t26.5 63.5t63.5 26.5q9 0 25 -4v291q0 113 -11 158q-9 35 -43 35l-229 12v47h840v-47l-217 -12q-31 0 -41 -29q-13 -51 -13 -211v-244q16 4 25 4q37 0 63.5 -26.5t26.5 -63.5t-26.5 -63.5t-63.5 -26.5 q-9 0 -25 4v-135h271v-47l-217 -12q-31 0 -41 -29q-13 -46 -13 -188q0 -70 2 -86q2 -45 12.5 -70t39.5 -25l221 -12v-47h-275v-551q0 -122 2 -145q2 -45 12.5 -70t39.5 -25l221 -12v-47h-836v47l221 12q32 0 41 31q13 51 13 209v551h-275v47l221 12q32 0 41 31q13 51 13 209 v27q0 53 -11 96q-9 35 -43 35zM215 2437q0 37 26.5 63.5t63.5 26.5t63.5 -26.5t26.5 -63.5t-26.5 -63.5t-63.5 -26.5t-63.5 26.5t-26.5 63.5zM551 2437q0 37 26.5 63.5t63.5 26.5t63.5 -26.5t26.5 -63.5t-26.5 -63.5t-63.5 -26.5t-63.5 26.5t-26.5 63.5z" />
<glyph unicode="&#xd1;" horiz-adv-x="1775" d="M0 1319v47h410l6 518l-129 146q-80 91 -128.5 115t-158.5 24v47h502l532 -602q28 9 56 51l38 -29q-25 -45 -51 -71l176 -199h97l6 537q0 186 -35 221q-38 30 -74 39q-38 6 -162 6v47h691v-47l-166 -12q-64 -7 -95.5 -30t-45 -73.5t-13.5 -150.5l-6 -537h326v-47l-166 -12 q-64 -7 -95.5 -30t-45 -73.5t-13.5 -150.5l-14 -1098h-72l-790 895h-74v-545q0 -145 24 -186q22 -41 51.5 -53.5t92.5 -12.5l102 -6v-47h-690v47l96 6q140 0 183 47.5t43 202.5l6 547h-328v47l96 6q115 0 162 30t57 116l-114 131q-80 91 -128.5 115t-158.5 24zM508 1360 l840 -950l6 415l-639 721q-17 -11 -33 -37l-35 29q18 32 33 47l-172 193v-418zM647 2388q65 115 150 115q16 0 69 -11q39 -11 88.5 -20.5t61.5 -9.5q39 0 74 53l38 -29q-67 -119 -141 -119q-46 0 -160 29q-49 12 -75 12q-43 0 -70 -49z" />
<glyph unicode="&#xd2;" horiz-adv-x="1753" d="M96 682q0 236 150 426q-150 190 -150 424q0 196 103 362t280 262.5t387 96.5q162 0 308.5 -57.5t252.5 -154.5t168 -231t62 -282q0 -235 -148 -426q148 -191 148 -424q0 -197 -103 -361.5t-281.5 -259t-393.5 -94.5q-214 0 -394 96t-284.5 261.5t-104.5 361.5zM412 684 q0 -185 60.5 -334.5t168 -234t240.5 -84.5q126 0 231 84.5t166 233.5t61 329q0 125 -32 250q-191 -115 -428 -115q-239 0 -435 121q-32 -122 -32 -250zM412 1534q0 -142 32 -248q191 117 422 117q242 0 441 -121q32 122 32 246q0 182 -62 331.5t-170.5 234.5t-240.5 85 q-128 0 -232 -83.5t-163 -231t-59 -330.5zM518 1108q64 -108 157.5 -167.5t205.5 -59.5q104 0 195 58.5t153 162.5q-64 107 -158 167t-205 60q-106 0 -195.5 -58t-152.5 -163zM682 1692l137 61q56 -78 111 -130.5t141 -109.5l-24 -34q-229 99 -365 213zM682 2542l137 61 q56 -78 111 -130.5t141 -109.5l-24 -34q-229 99 -365 213z" />
<glyph unicode="&#xd3;" horiz-adv-x="1753" d="M96 682q0 236 150 426q-150 190 -150 424q0 196 103 362t280 262.5t387 96.5q162 0 308.5 -57.5t252.5 -154.5t168 -231t62 -282q0 -235 -148 -426q148 -191 148 -424q0 -197 -103 -361.5t-281.5 -259t-393.5 -94.5q-214 0 -394 96t-284.5 261.5t-104.5 361.5zM412 684 q0 -185 60.5 -334.5t168 -234t240.5 -84.5q126 0 231 84.5t166 233.5t61 329q0 125 -32 250q-191 -115 -428 -115q-239 0 -435 121q-32 -122 -32 -250zM412 1534q0 -142 32 -248q191 117 422 117q242 0 441 -121q32 122 32 246q0 182 -62 331.5t-170.5 234.5t-240.5 85 q-128 0 -232 -83.5t-163 -231t-59 -330.5zM518 1108q64 -108 157.5 -167.5t205.5 -59.5q104 0 195 58.5t153 162.5q-64 107 -158 167t-205 60q-106 0 -195.5 -58t-152.5 -163zM682 1513q86 55 142 108.5t110 131.5l137 -61q-148 -121 -364 -213zM682 2363q86 55 142 108.5 t110 131.5l137 -61q-148 -121 -364 -213z" />
<glyph unicode="&#xd4;" horiz-adv-x="1753" d="M96 682q0 236 150 426q-150 190 -150 424q0 196 103 362t280 262.5t387 96.5q162 0 308.5 -57.5t252.5 -154.5t168 -231t62 -282q0 -235 -148 -426q148 -191 148 -424q0 -197 -103 -361.5t-281.5 -259t-393.5 -94.5q-214 0 -394 96t-284.5 261.5t-104.5 361.5zM412 684 q0 -185 60.5 -334.5t168 -234t240.5 -84.5q126 0 231 84.5t166 233.5t61 329q0 125 -32 250q-191 -115 -428 -115q-239 0 -435 121q-32 -122 -32 -250zM412 1534q0 -142 32 -248q191 117 422 117q242 0 441 -121q32 122 32 246q0 182 -62 331.5t-170.5 234.5t-240.5 85 q-128 0 -232 -83.5t-163 -231t-59 -330.5zM518 1108q64 -108 157.5 -167.5t205.5 -59.5q104 0 195 58.5t153 162.5q-64 107 -158 167t-205 60q-106 0 -195.5 -58t-152.5 -163zM643 1493q75 67 141 135q43 43 62 96h90q0 -53 37.5 -99.5t136.5 -119.5l-74 -41 q-135 84 -174 144q-50 -50 -186 -144zM643 2343q75 67 141 135q43 43 62 96h90q0 -53 37.5 -99.5t136.5 -119.5l-74 -41q-135 84 -174 144q-50 -50 -186 -144z" />
<glyph unicode="&#xd5;" horiz-adv-x="1753" d="M96 682q0 235 148 426q-148 191 -148 422q0 196 103 362t280 262.5t387 96.5q162 0 308.5 -57.5t252.5 -154.5t168 -231t62 -282q0 -236 -148 -424q148 -191 148 -424q0 -197 -103 -361.5t-281.5 -259t-393.5 -94.5q-214 0 -394 96t-284.5 261.5t-104.5 361.5zM412 684 q0 -185 60.5 -334.5t168 -234t240.5 -84.5q126 0 231 84.5t166 233.5t61 329q0 126 -32 248q-191 -115 -428 -115q-238 0 -437 121q-30 -114 -30 -248zM412 1532q0 -134 30 -248q193 119 424 119q242 0 441 -121q32 118 32 244q0 182 -62 331.5t-170.5 234.5t-240.5 85 q-128 0 -232 -83.5t-163 -231t-59 -330.5zM516 1108q64 -109 158 -169t207 -60q104 0 195 59t155 164q-66 107 -160.5 167t-204.5 60q-106 0 -197 -58.5t-153 -162.5zM637 1538q65 115 149 115q17 0 70 -11q39 -11 88.5 -20.5t61.5 -9.5q38 0 73 53l39 -29 q-66 -118 -141 -118q-50 0 -160 28q-54 13 -76 13q-42 0 -69 -50zM637 2386q65 115 149 115q17 0 70 -11q39 -11 88.5 -20.5t61.5 -9.5q38 0 73 53l39 -29q-67 -119 -141 -119q-46 0 -160 29q-50 12 -76 12q-42 0 -69 -49z" />
<glyph unicode="&#xd6;" horiz-adv-x="1753" d="M96 682q0 236 150 426q-150 190 -150 424q0 196 103 362t280 262.5t387 96.5q162 0 308.5 -57.5t252.5 -154.5t168 -231t62 -282q0 -235 -148 -426q148 -191 148 -424q0 -197 -103 -361.5t-281.5 -259t-393.5 -94.5q-214 0 -394 96t-284.5 261.5t-104.5 361.5zM412 684 q0 -185 60.5 -334.5t168 -234t240.5 -84.5q126 0 231 84.5t166 233.5t61 329q0 125 -32 250q-191 -115 -428 -115q-239 0 -435 121q-32 -122 -32 -250zM412 1534q0 -142 32 -248q191 117 422 117q242 0 441 -121q32 122 32 246q0 182 -62 331.5t-170.5 234.5t-240.5 85 q-128 0 -232 -83.5t-163 -231t-59 -330.5zM518 1108q64 -108 157.5 -167.5t205.5 -59.5q104 0 195 58.5t153 162.5q-64 107 -158 167t-205 60q-106 0 -195.5 -58t-152.5 -163zM618 1587q0 37 27 63.5t64 26.5t63.5 -26.5t26.5 -63.5t-26.5 -63.5t-63.5 -26.5t-64 26.5 t-27 63.5zM618 2437q0 37 27 63.5t64 26.5t63.5 -26.5t26.5 -63.5t-26.5 -63.5t-63.5 -26.5t-64 26.5t-27 63.5zM954 1587q0 37 26.5 63.5t63.5 26.5t64 -26.5t27 -63.5t-27 -63.5t-64 -26.5t-63.5 26.5t-26.5 63.5zM954 2437q0 37 26.5 63.5t63.5 26.5t64 -26.5t27 -63.5 t-27 -63.5t-64 -26.5t-63.5 26.5t-26.5 63.5z" />
<glyph unicode="&#xd7;" d="M115 395l80 -80l319 320l315 -318l78 78l-317 316l319 319l-80 80l-319 -319l-315 315l-78 -76l317 -317zM115 1245l80 -80l319 320l315 -318l78 78l-317 316l319 319l-80 80l-319 -320l-315 316l-78 -76l317 -317z" />
<glyph unicode="&#xd9;" horiz-adv-x="1685" d="M59 1319v47h242v594q0 92 -2 108q-1 19 -2.5 28.5t-6 25t-15 23t-27.5 7.5l-189 13v47h768v-47l-186 -13q-16 0 -21.5 -1t-10.5 -7.5t-9 -23.5q-12 -40 -12 -207v-506v-41h239v-47l-186 -12q-16 0 -21.5 -1.5t-10.5 -8t-9 -23.5l-4 -19q11 -93 45 -153q103 -160 283 -160 q294 0 344 326q-16 39 -45 39l-215 12v47h268v39v555q0 92 -2 108q-5 84 -51 84l-215 13v47h616v-47l-199 -13q-16 0 -21.5 -1t-10.5 -7.5t-9 -23.5q-12 -40 -12 -207v-496v-51h252v-47l-199 -12q-16 0 -21.5 -1.5t-10.5 -8t-9 -23.5q-12 -40 -12 -207v-496 q0 -154 -18.5 -240.5t-75.5 -168.5q-60 -88 -175 -142.5t-253 -54.5q-160 0 -288 66.5t-177 163.5q-84 154 -84 299v620q0 93 -2 109q-1 19 -2.5 28.5t-6 25t-15 23t-27.5 7.5zM588 561q0 -222 53 -305q103 -160 283 -160q352 0 352 463v447q-60 -88 -174.5 -141.5 t-251.5 -53.5q-143 0 -262 55v-305zM647 1692l137 61q56 -78 111 -130.5t141 -109.5l-24 -34q-229 99 -365 213zM647 2537l137 62q56 -78 111 -130.5t141 -109.5l-24 -35q-229 99 -365 213z" />
<glyph unicode="&#xda;" horiz-adv-x="1685" d="M59 1319v47h242v592q0 92 -2 108q-1 19 -2.5 28.5t-6 25t-15 23t-27.5 7.5l-189 13v47h768v-47l-186 -13q-16 0 -21.5 -1t-10.5 -7.5t-9 -23.5q-12 -40 -12 -207v-506v-39h239v-47l-186 -12q-16 0 -21.5 -1.5t-10.5 -8t-9 -23.5l-4 -21q11 -93 45 -153q103 -160 283 -160 q295 0 344 328q-12 39 -45 39l-215 12v47h268v37v555q0 92 -2 108q-5 84 -51 84l-215 13v47h616v-47l-199 -13q-16 0 -21.5 -1t-10.5 -7.5t-9 -23.5q-12 -40 -12 -207v-496v-49h252v-47l-199 -12q-16 0 -21.5 -1.5t-10.5 -8t-9 -23.5q-12 -40 -12 -207v-496 q0 -154 -18.5 -240.5t-75.5 -168.5q-60 -88 -175 -142.5t-253 -54.5q-160 0 -288 66.5t-177 163.5q-84 154 -84 299v620q0 93 -2 109q-1 19 -2.5 28.5t-6 25t-15 23t-27.5 7.5zM588 561q0 -222 53 -305q103 -160 283 -160q352 0 352 463v445q-60 -88 -174.5 -141.5 t-251.5 -53.5q-143 0 -262 55v-303zM647 1513q86 55 142 108.5t110 131.5l137 -61q-148 -121 -364 -213zM647 2357q86 55 142 108.5t110 131.5l137 -62q-148 -121 -364 -213z" />
<glyph unicode="&#xdb;" horiz-adv-x="1685" d="M59 1319v47h242v592q0 92 -2 108q-1 19 -2.5 28.5t-6 25t-15 23t-27.5 7.5l-189 13v47h768v-47l-186 -13q-16 0 -21.5 -1t-10.5 -7.5t-9 -23.5q-12 -40 -12 -207v-506v-39h239v-47l-186 -12q-16 0 -21.5 -1.5t-10.5 -8t-9 -23.5l-4 -21q11 -93 45 -153q103 -160 283 -160 q295 0 344 328q-12 39 -45 39l-215 12v47h268v37v555q0 92 -2 108q-5 84 -51 84l-215 13v47h616v-47l-199 -13q-16 0 -21.5 -1t-10.5 -7.5t-9 -23.5q-12 -40 -12 -207v-496v-49h252v-47l-199 -12q-16 0 -21.5 -1.5t-10.5 -8t-9 -23.5q-12 -40 -12 -207v-496 q0 -154 -18.5 -240.5t-75.5 -168.5q-60 -88 -175 -142.5t-253 -54.5q-160 0 -288 66.5t-177 163.5q-84 154 -84 299v620q0 93 -2 109q-1 19 -2.5 28.5t-6 25t-15 23t-27.5 7.5zM588 561q0 -222 53 -305q103 -160 283 -160q352 0 352 463v445q-60 -88 -174.5 -141.5 t-251.5 -53.5q-143 0 -262 55v-303zM608 1493q82 73 142 135q41 41 61 96h90q0 -53 37.5 -99.5t136.5 -119.5l-74 -41q-135 84 -174 144q-50 -50 -186 -144zM608 2337q82 73 142 135q41 41 61 96h90q0 -53 37.5 -99.5t136.5 -119.5l-74 -41q-136 85 -174 143 q-46 -46 -186 -143z" />
<glyph unicode="&#xdc;" horiz-adv-x="1685" d="M59 1319v47h242v594q0 92 -2 108q-1 19 -2.5 28.5t-6 25t-15 23t-27.5 7.5l-189 13v47h768v-47l-186 -13q-16 0 -21.5 -1t-10.5 -7.5t-9 -23.5q-12 -40 -12 -207v-299q9 28 32.5 45.5t53.5 17.5q37 0 63.5 -26.5t26.5 -63.5t-26.5 -63.5t-63.5 -26.5q-30 0 -53.5 18 t-32.5 46v-154v-41h239v-47l-186 -12q-16 0 -21.5 -1.5t-10.5 -8t-9 -23.5l-4 -19q11 -93 45 -153q103 -160 283 -160q294 0 344 326q-16 39 -45 39l-215 12v47h268v39v555q0 92 -2 108q-5 84 -51 84l-215 13v47h616v-47l-199 -13q-16 0 -21.5 -1t-10.5 -7.5t-9 -23.5 q-12 -40 -12 -207v-496v-51h252v-47l-199 -12q-16 0 -21.5 -1.5t-10.5 -8t-9 -23.5q-12 -40 -12 -207v-496q0 -154 -18.5 -240.5t-75.5 -168.5q-60 -88 -175 -142.5t-253 -54.5q-160 0 -288 66.5t-177 163.5q-84 154 -84 299v620q0 93 -2 109q-1 19 -2.5 28.5t-6 25t-15 23 t-27.5 7.5zM584 2433q0 37 26.5 63.5t63.5 26.5t63.5 -26.5t26.5 -63.5t-26.5 -63.5t-63.5 -26.5t-63.5 26.5t-26.5 63.5zM588 561q0 -222 53 -305q103 -160 283 -160q352 0 352 463v447q-60 -88 -174.5 -141.5t-251.5 -53.5q-143 0 -262 55v-305zM920 1587q0 37 26.5 63.5 t63.5 26.5t63.5 -26.5t26.5 -63.5t-26.5 -63.5t-63.5 -26.5t-63.5 26.5t-26.5 63.5zM920 2433q0 37 26.5 63.5t63.5 26.5t63.5 -26.5t26.5 -63.5t-26.5 -63.5t-63.5 -26.5t-63.5 26.5t-26.5 63.5z" />
<glyph unicode="&#xdd;" horiz-adv-x="1527" d="M2 1319v47h647q0 44 -14 76l-23 43q-3 -1 -8 -3t-8 -3l-27 34l21 13q-6 12 -19.5 34.5t-17.5 30.5l-221 373q-9 15 -25 43t-22.5 38.5t-19.5 31t-21 27.5t-22.5 20.5t-28 17.5t-33 11.5t-42.5 9.5t-51.5 4t-64.5 2v47h762v-47q-92 0 -133 -15t-41 -40t43 -101l168 -289 l20 29l125 -55l101 188l69 146q29 69 29 86q0 27 -45 39q-46 12 -152 12v47h580v-47q-124 0 -160 -8q-41 -9 -63 -37l-62 -94l-82 -142l-160 -284q-45 -83 -55 -119.5t-10 -120.5v-215q0 -122 2 -145q1 -22 2 -33.5t5 -27.5t12.5 -24t21.5 -10l68 127l69 146q29 69 29 86 q0 27 -45 39q-46 12 -152 12v47h580v-47q-124 0 -160 -8q-41 -9 -63 -37l-62 -94l-82 -142l-76 -135l72 -6v-47h-102l-54 -96q-45 -83 -55 -119.5t-10 -120.5v-215q0 -122 2 -145q1 -24 2.5 -36.5t6 -28.5t15 -23t27.5 -7l168 -12v-47h-762v47l199 12q36 0 45 33 q10 33 10 207v215q0 46 -14 78q-15 29 -82 149l-64 109h-94v47l64 4l-127 213q-9 15 -25 43t-22.5 38.5t-19.5 31t-21 27.5t-22.5 20.5t-28 17.5t-33 11.5t-42.5 9.5t-51.5 4t-64.5 2zM569 2363q86 55 142 108.5t110 131.5l137 -61q-128 -108 -362 -213zM590 1264 q0 -25 43 -101l16 -28v14v162l-18 -6q-41 -15 -41 -41zM815 850l70 -119l63 119h-133zM862 1620l23 -39l47 90q-43 -34 -70 -51z" />
<glyph unicode="&#xf7;" d="M37 655v111h950v-111h-950zM37 1505v111h950v-111h-950zM418 344q0 39 26.5 65.5t67.5 26.5q38 0 65 -27t27 -65q0 -41 -26.5 -67.5t-65.5 -26.5q-41 0 -67.5 26.5t-26.5 67.5zM418 1194q0 39 26.5 65.5t67.5 26.5q38 0 65 -27t27 -65q0 -33 -16 -55q18 -24 18 -58 q0 -41 -26.5 -67.5t-65.5 -26.5q-38 0 -66 28t-28 66q0 32 16 54q-18 24 -18 59zM420 1931q0 39 26.5 65.5t67.5 26.5q38 0 65 -27t27 -65q0 -41 -26.5 -67.5t-65.5 -26.5q-38 0 -66 28t-28 66z" />
<glyph unicode="&#x152;" horiz-adv-x="2312" d="M96 682q0 233 150 426q-150 190 -150 424q0 194 103.5 360.5t281 263.5t385.5 97q117 0 244 -37h834q56 0 66 2.5t46 24.5l29 16l39 -27q-56 -145 -101 -303h-47q-5 39 -7.5 56t-8.5 44t-10.5 37t-16 26.5t-21.5 21t-31 13.5t-41 10t-55 4t-69 3h-86h-110 q-17 -163 -17 -223v-328l27 -2h164h12q59 0 71 8.5t21 57.5q1 2 1 5q2 8 3 13l29 121h47v-430h66q56 0 66 2.5t46 24.5l29 16l39 -27q-56 -145 -101 -303h-47q-5 39 -7.5 56t-8.5 44t-10.5 37t-16 26.5t-21.5 21t-31 13.5t-41 10t-55 4t-69 3h-86h-110q-15 -155 -17 -192 q2 -26 6 -80q1 -13 5.5 -44.5t5.5 -45.5q96 -12 186 -12q47 0 121 4l4 22h47v-14q105 19 192 71t201 162l41 -26q-61 -106 -93.5 -171t-88.5 -192h-53q-11 51 -19 60q-13 13 -71 14h-43h-66v-387h-47l-33 123l-14 55q-3 22 -33 25q-55 8 -188 8h-60v-381q0 -69 6 -121 q1 -13 5.5 -44.5t5.5 -45.5q96 -12 186 -12q187 0 300 49t265 196l41 -26q-61 -106 -93.5 -171t-88.5 -192h-53q-11 51 -19 60q-13 13 -71 14h-43h-816q-127 -37 -249 -37q-214 0 -394 96t-284.5 261.5t-104.5 361.5zM412 682q0 -183 61.5 -332t169.5 -234t240 -85 q197 0 334 198v621h-89q-127 -37 -249 -37q-239 0 -435 119q-32 -122 -32 -250zM412 1532q0 -126 32 -248q189 119 422 119q117 0 244 -37h107v602q-141 211 -349 211q-128 0 -232.5 -84t-164 -232.5t-59.5 -330.5zM520 1108q64 -107 158 -167t205 -60q197 0 334 198v39 q-141 211 -349 211q-106 0 -195.5 -58t-152.5 -163zM1503 743l27 -2h164h12q59 0 71 8.5t21 57.5q1 2 1 5q2 8 3 13l6 25h-305v-107zM1503 1366h314l-19 70l-14 55q-3 22 -33 25q-55 8 -188 8h-60v-158z" />
<glyph unicode="&#x178;" horiz-adv-x="1527" d="M2 1319v47h647q0 44 -14 76l-29 55h-8q-37 0 -63.5 26.5t-26.5 63.5q0 29 16 51l-192 326q-9 15 -25 43t-22.5 38.5t-19.5 31t-21 27.5t-22.5 20.5t-28 17.5t-33 11.5t-42.5 9.5t-51.5 4t-64.5 2v47h762v-47q-92 0 -133 -15t-41 -40t43 -101l223 -383q23 47 80 47 l111 209l69 146q29 69 29 86q0 27 -45 39q-46 12 -152 12v47h580v-47q-124 0 -160 -8q-41 -9 -63 -37l-62 -94l-82 -142l-147 -262q10 -17 10 -39q0 -32 -21.5 -57t-52.5 -31q-14 -43 -14 -135v-215q0 -122 2 -145q1 -22 2 -33.5t5 -27.5t12.5 -24t21.5 -10l68 127l69 146 q29 69 29 86q0 27 -45 39q-46 12 -152 12v47h580v-47q-124 0 -160 -8q-41 -9 -63 -37l-62 -94l-82 -142l-76 -135l72 -6v-47h-102l-54 -96q-45 -83 -55 -119.5t-10 -120.5v-215q0 -122 2 -145q1 -24 2.5 -36.5t6 -28.5t15 -23t27.5 -7l168 -12v-47h-762v47l199 12 q36 0 45 33q10 33 10 207v215q0 46 -14 78q-15 29 -82 149l-64 109h-94v47l64 4l-127 213q-9 15 -25 43t-22.5 38.5t-19.5 31t-21 27.5t-22.5 20.5t-28 17.5t-33 11.5t-42.5 9.5t-51.5 4t-64.5 2zM508 2437q0 37 26.5 63.5t63.5 26.5t63.5 -26.5t26.5 -63.5t-26.5 -63.5 t-63.5 -26.5t-63.5 26.5t-26.5 63.5zM590 1264q0 -25 43 -101l16 -28v14v162l-18 -6q-41 -15 -41 -41zM815 850l70 -119l63 119h-133zM844 2437q0 37 26.5 63.5t63.5 26.5t63.5 -26.5t26.5 -63.5t-26.5 -63.5t-63.5 -26.5t-63.5 26.5t-26.5 63.5z" />
<glyph unicode="&#x2000;" horiz-adv-x="1319" />
<glyph unicode="&#x2001;" horiz-adv-x="2638" />
<glyph unicode="&#x2002;" horiz-adv-x="1319" />
<glyph unicode="&#x2003;" horiz-adv-x="2638" />
<glyph unicode="&#x2004;" horiz-adv-x="879" />
<glyph unicode="&#x2005;" horiz-adv-x="659" />
<glyph unicode="&#x2006;" horiz-adv-x="439" />
<glyph unicode="&#x2007;" horiz-adv-x="439" />
<glyph unicode="&#x2008;" horiz-adv-x="329" />
<glyph unicode="&#x2009;" horiz-adv-x="527" />
<glyph unicode="&#x200a;" horiz-adv-x="146" />
<glyph unicode="&#x2010;" horiz-adv-x="518" d="M0 217l41 -27l45 70h346l86 172l-33 27l-53 -68h-346zM39 1067l41 -27l45 70h346l86 172l-33 27l-53 -68h-346z" />
<glyph unicode="&#x2011;" horiz-adv-x="518" d="M0 217l41 -27l45 70h346l86 172l-33 27l-53 -68h-346zM39 1067l41 -27l45 70h346l86 172l-33 27l-53 -68h-346z" />
<glyph unicode="&#x2012;" horiz-adv-x="518" d="M0 217l41 -27l45 70h346l86 172l-33 27l-53 -68h-346zM39 1067l41 -27l45 70h346l86 172l-33 27l-53 -68h-346z" />
<glyph unicode="&#x2013;" horiz-adv-x="1064" d="M59 217l41 -27l45 70h762l86 172l-35 27l-51 -68h-762zM59 1067l41 -27l45 70h762l86 172l-35 27l-51 -68h-762z" />
<glyph unicode="&#x2014;" horiz-adv-x="1212" d="M0 217l41 -27l45 70h1040l86 172l-32 27l-54 -68h-1040zM0 1067l41 -27l45 70h1040l86 172l-32 27l-54 -68h-1040z" />
<glyph unicode="&#x2018;" horiz-adv-x="669" d="M182 1081q0 -49 35 -83.5t80 -34.5q84 0 215 88l-27 22q-30 -15 -39 -18q-12 -4 -16 -4q-25 0 -41 29.5t-16 72.5q0 116 139 219l-27 31q-136 -69 -219.5 -158t-83.5 -164zM182 1931q0 -49 35 -84t80 -35q82 0 215 89l-27 22q-30 -15 -39 -18q-12 -4 -16 -4 q-25 0 -41 29.5t-16 72.5q0 116 139 219l-27 31q-136 -69 -219.5 -158t-83.5 -164z" />
<glyph unicode="&#x2019;" horiz-adv-x="671" d="M160 991l26 -28q136 67 219.5 156t83.5 165q0 49 -34.5 84t-79.5 35q-84 0 -215 -88l26 -25q37 22 39 23q6 2 17 2q24 0 40.5 -30t16.5 -73q0 -118 -139 -221zM160 1841l26 -29q135 67 219 156.5t84 165.5q0 49 -34.5 84t-79.5 35q-84 0 -215 -88l26 -25q37 22 39 23 q6 2 17 2q24 0 40.5 -30t16.5 -73q0 -118 -139 -221z" />
<glyph unicode="&#x201a;" horiz-adv-x="671" d="M160 90l26 -24l39 20q4 2 17 2q25 0 41 -29.5t16 -72.5q0 -116 -139 -219l26 -29q137 68 220 154.5t83 164.5q0 49 -34.5 84t-79.5 35q-82 0 -215 -86zM160 610l26 -28q137 68 220 154.5t83 164.5q0 49 -34.5 84t-79.5 35q-82 0 -215 -86l26 -25l39 21q4 2 17 2 q24 0 40.5 -30t16.5 -73q0 -116 -139 -219z" />
<glyph unicode="&#x201c;" horiz-adv-x="1064" d="M182 1081q0 -49 35 -83.5t80 -34.5q84 0 215 88l-27 22l-28 -14q-13 -8 -29 -8q-23 0 -39 30t-16 72q0 116 139 219l-27 31q-137 -69 -220 -156.5t-83 -165.5zM182 1931q0 -49 35 -84t80 -35q82 0 215 89l-27 22q-3 -1 -8.5 -3.5t-10.5 -5t-9 -5.5q-13 -8 -29 -8 q-23 0 -39 30t-16 72q0 116 139 219l-27 31q-137 -69 -220 -156.5t-83 -165.5zM578 1081q0 -49 34.5 -83.5t79.5 -34.5q84 0 215 88l-26 22q-30 -15 -39 -18q-12 -4 -17 -4q-25 0 -41 29.5t-16 72.5q0 116 139 219l-26 31q-136 -69 -219.5 -158t-83.5 -164zM578 1931 q0 -49 34.5 -84t79.5 -35q82 0 215 89l-26 22q-30 -15 -39 -18q-12 -4 -17 -4q-25 0 -41 29.5t-16 72.5q0 116 139 219l-26 31q-136 -69 -219.5 -158t-83.5 -164z" />
<glyph unicode="&#x201d;" horiz-adv-x="1064" d="M160 991l26 -28q136 67 219.5 156t83.5 165q0 49 -34.5 84t-79.5 35q-84 0 -215 -88l26 -25q37 22 39 23q6 2 17 2q24 0 40.5 -30t16.5 -73q0 -118 -139 -221zM160 1841l26 -29q135 67 219 156.5t84 165.5q0 49 -34.5 84t-79.5 35q-84 0 -215 -88l26 -25q37 22 39 23 q6 2 17 2q24 0 40.5 -30t16.5 -73q0 -118 -139 -221zM555 991l27 -28q136 67 219.5 156t83.5 165q0 49 -35 84t-80 35q-84 0 -215 -88l27 -25q48 25 55 25q25 0 41 -30t16 -75q0 -113 -139 -219zM555 1841l27 -29q135 67 219 156.5t84 165.5q0 49 -35 84t-80 35 q-84 0 -215 -88l27 -25q48 25 55 25q25 0 41 -30t16 -75q0 -113 -139 -219z" />
<glyph unicode="&#x201e;" horiz-adv-x="1064" d="M160 90l26 -24q8 4 17 9t14 7.5t8 3.5q6 2 17 2q25 0 41 -29.5t16 -72.5q0 -116 -139 -219l26 -29q137 68 220 154.5t83 164.5q0 49 -34.5 84t-79.5 35q-82 0 -215 -86zM160 612l26 -28q137 68 220 154.5t83 164.5q0 49 -34.5 84t-79.5 35q-82 0 -215 -86l26 -25 q8 4 17 9t14 8t8 4q6 2 17 2q24 0 40.5 -30t16.5 -73q0 -116 -139 -219zM555 90l27 -24q22 12 39 18q12 4 16 4q25 0 41 -29.5t16 -72.5q0 -116 -139 -219l27 -29q137 68 220 154.5t83 164.5q0 49 -35 84t-80 35q-82 0 -215 -86zM555 612l27 -28q137 68 220 154.5t83 164.5 q0 49 -35 84t-80 35q-82 0 -215 -86l27 -25q27 15 39 19t16 4q24 0 40.5 -30t16.5 -73q0 -116 -139 -219z" />
<glyph unicode="&#x2022;" horiz-adv-x="1366" d="M401 694q0 -119 83 -201.5t204 -82.5q117 0 199 83.5t82 200.5q0 118 -82 200.5t-199 82.5q-121 0 -204 -82.5t-83 -200.5zM401 1544q0 -119 83 -201.5t204 -82.5q117 0 199 83.5t82 200.5q0 118 -82 200.5t-199 82.5q-121 0 -204 -82.5t-83 -200.5z" />
<glyph unicode="&#x2026;" horiz-adv-x="2011" d="M233 76q0 -43 30 -73t73 -30q41 0 70.5 30t29.5 73t-28.5 71.5t-71.5 28.5q-44 0 -73.5 -28.5t-29.5 -71.5zM233 924q0 -43 30 -73t73 -30q41 0 70.5 30t29.5 73t-28.5 71.5t-71.5 28.5q-44 0 -73.5 -28.5t-29.5 -71.5zM903 76q0 -43 30 -73t73 -30q41 0 70.5 30t29.5 73 t-28.5 71.5t-71.5 28.5q-44 0 -73.5 -28.5t-29.5 -71.5zM903 924q0 -43 30 -73t73 -30q41 0 70.5 30t29.5 73t-28.5 71.5t-71.5 28.5q-44 0 -73.5 -28.5t-29.5 -71.5zM1575 76q0 -43 29.5 -73t72.5 -30q41 0 71 30t30 73t-29 71.5t-72 28.5q-44 0 -73 -28.5t-29 -71.5z M1575 924q0 -43 29.5 -73t72.5 -30q41 0 71 30t30 73t-29 71.5t-72 28.5q-44 0 -73 -28.5t-29 -71.5z" />
<glyph unicode="&#x202f;" horiz-adv-x="527" />
<glyph unicode="&#x2039;" horiz-adv-x="481" d="M72 313q0 -188 323 -290l15 36q-164 104 -164 254q0 155 164 281l-23 35q-315 -140 -315 -316zM72 1165q0 -189 323 -291l15 37q-164 104 -164 254q0 155 164 281l-23 35q-315 -140 -315 -316z" />
<glyph unicode="&#x203a;" horiz-adv-x="481" d="M72 57l22 -34q316 141 316 315q0 186 -324 291l-14 -37q164 -104 164 -254q0 -155 -164 -281zM72 909l22 -35q316 141 316 316q0 186 -324 291l-14 -37q164 -104 164 -254q0 -155 -164 -281z" />
<glyph unicode="&#x205f;" horiz-adv-x="659" />
<glyph unicode="&#x2122;" horiz-adv-x="1812" d="M31 1161h37q0 94 33 128t124 34h72v-610q0 -60 -13.5 -75t-64.5 -15h-47v-37h397v37h-47q-51 0 -64.5 15t-13.5 75v610h72q94 0 127 -33t33 -129h37v205h-682v-205zM31 2011h37q0 94 33 128t124 34h72v-610q0 -60 -13.5 -75t-64.5 -15h-47v-37h397v37h-47q-51 0 -64.5 15 t-13.5 75v610h72q94 0 127 -33t33 -129h37v205h-682v-205zM748 1331q66 0 85 -11t19 -48v-565q0 -84 -100 -84v-35h254v35q-103 0 -103 84v573l293 -692h25l292 672v-553q0 -51 -16 -67.5t-63 -16.5h-31v-35h354v35h-28q-43 0 -57.5 16.5t-14.5 67.5v538q0 53 14.5 69.5 t59.5 16.5h32v35h-252l-251 -575l-240 575h-272v-35zM748 2181q66 0 85 -11t19 -48v-566q0 -83 -100 -83v-35h254v35q-103 0 -103 83v574l293 -692h25l292 671v-553q0 -51 -15.5 -67t-63.5 -16h-31v-35h354v35h-28q-43 0 -57.5 16t-14.5 67v539q0 53 14.5 69.5t59.5 16.5h32 v35h-252l-251 -576l-240 576h-272v-35z" />
<glyph unicode="&#x25fc;" horiz-adv-x="2211" d="M0 0v2212h2212v-2212h-2212z" />
</font>
</defs>
</svg>
